<?xml version="1.0" standalone="no"?>
<!DOCTYPE svg PUBLIC "-//W3C//DTD SVG 20010904//EN"
 "http://www.w3.org/TR/2001/REC-SVG-20010904/DTD/svg10.dtd">
<svg version="1.0" xmlns="http://www.w3.org/2000/svg"
 width="705.000000pt" height="705.000000pt" viewBox="0 0 705.000000 705.000000"
 preserveAspectRatio="xMidYMid meet">
<metadata>
Created by potrace 1.14, written by Peter Selinger 2001-2017
</metadata>
<g transform="translate(0.000000,705.000000) scale(0.100000,-0.100000)"
fill="#000000" stroke="none">
<path d="M306 7028 c-9 -12 -15 -23 -13 -24 1 0 22 -4 45 -8 33 -5 43 -3 40 6
-3 7 -15 13 -29 13 -17 0 -23 5 -21 18 4 23 -4 22 -22 -5z"/>
<path d="M655 7040 c-8 -13 5 -13 25 0 13 8 13 10 -2 10 -9 0 -20 -4 -23 -10z"/>
<path d="M1006 7034 c-4 -10 -13 -13 -27 -9 -12 4 -32 1 -45 -5 -18 -10 -22
-19 -17 -40 3 -15 0 -31 -6 -34 -20 -13 -12 -34 15 -40 21 -6 33 -1 53 18 33
31 39 32 49 5 8 -20 9 -21 26 -3 17 17 17 18 -1 33 -23 19 -47 71 -33 71 6 0
10 5 10 10 0 16 -17 12 -24 -6z"/>
<path d="M1198 7039 c-2 -7 0 -33 6 -59 8 -39 7 -53 -7 -73 -15 -23 -15 -26
-1 -38 10 -8 14 -24 11 -43 -3 -22 4 -44 24 -75 30 -49 29 -61 -4 -61 l-22 -1
23 -18 c12 -11 22 -26 22 -35 0 -9 5 -16 10 -16 6 0 10 7 10 15 0 8 5 15 10
15 6 0 8 -11 4 -25 -9 -38 3 -76 22 -68 9 3 19 0 24 -6 5 -9 9 -4 12 13 4 19
0 30 -12 36 -10 5 -25 31 -34 56 -15 46 -14 64 4 64 18 0 50 -34 50 -52 0 -10
4 -18 9 -18 5 0 17 -7 25 -16 20 -19 22 -122 4 -172 -11 -29 -10 -35 5 -43 13
-8 15 -14 7 -29 -6 -12 -7 -28 -1 -43 6 -14 7 -28 3 -32 -10 -9 -2 -128 9
-140 15 -16 11 -48 -6 -41 -12 4 -15 -3 -15 -34 0 -31 4 -40 18 -40 16 -1 16
-1 0 -14 -22 -16 -23 -30 -2 -62 12 -18 14 -28 6 -36 -15 -15 -32 -1 -32 26 0
13 -9 30 -20 37 -17 12 -22 33 -32 124 -7 61 -12 129 -12 153 0 47 -4 49 -47
26 -32 -16 -33 -34 -3 -81 11 -18 11 -21 1 -17 -10 4 -13 -8 -12 -53 2 -48 7
-60 30 -81 28 -23 28 -24 11 -58 -9 -20 -16 -59 -16 -92 0 -53 3 -61 40 -102
39 -43 46 -62 34 -94 -5 -13 -9 -14 -20 -5 -8 6 -14 18 -14 26 0 8 -10 27 -21
41 l-22 27 7 -25 c14 -47 25 -115 26 -160 0 -42 3 -46 40 -64 41 -20 45 -28
53 -96 2 -19 12 -71 21 -114 10 -43 15 -90 12 -102 -4 -14 -2 -24 4 -24 5 0
10 -14 10 -31 0 -24 -4 -30 -17 -27 -10 2 -19 13 -21 25 -2 12 -17 37 -33 54
-17 18 -37 45 -45 61 -8 15 -21 28 -29 28 -8 0 -33 16 -54 35 -23 21 -42 32
-46 25 -3 -5 -2 -10 2 -10 13 0 88 -72 104 -100 14 -26 18 -64 19 -210 1 -84
10 -131 35 -180 21 -40 28 -96 16 -119 -9 -15 -8 -26 1 -41 11 -18 10 -23 -4
-34 -29 -22 -21 -34 27 -42 l45 -6 0 -67 -1 -66 -19 37 c-15 27 -24 35 -39 31
-15 -4 -21 1 -24 24 -3 15 -3 -3 -1 -41 2 -53 8 -74 24 -91 19 -20 20 -29 13
-96 -13 -141 -1 -479 18 -479 5 0 9 -9 9 -20 0 -11 14 -53 30 -95 17 -42 30
-89 30 -106 0 -32 -23 -64 -39 -55 -5 3 -15 -2 -22 -11 -13 -15 -11 -16 11
-10 14 4 46 7 72 7 l48 0 -5 43 c-9 80 -13 633 -5 677 5 25 4 50 0 55 -5 6 -5
17 0 25 5 8 5 21 -1 32 -5 10 -8 86 -7 170 3 134 5 153 20 156 9 2 26 -6 38
-18 16 -16 25 -19 33 -11 15 15 49 14 81 -3 l26 -13 -22 -10 c-20 -9 -17 -11
25 -21 26 -7 73 -26 106 -42 32 -17 63 -30 69 -30 6 0 37 -22 68 -50 31 -27
62 -50 68 -50 6 0 3 5 -6 11 -10 5 -18 16 -18 23 0 18 -33 46 -53 46 -9 0 -17
3 -17 8 0 4 -21 18 -47 32 -27 13 -50 27 -53 30 -3 3 -21 13 -40 24 -19 10
-40 25 -47 34 -7 8 -22 20 -35 26 -12 6 -28 23 -35 36 -12 24 -13 24 -13 3 0
-26 -21 -32 -74 -21 -75 17 -81 28 -82 161 -2 109 -1 117 17 117 10 0 19 -6
19 -14 0 -8 7 -16 15 -20 8 -3 15 -11 15 -19 0 -18 73 -97 90 -97 8 0 25 -10
38 -22 23 -21 22 -19 -7 32 -17 30 -36 54 -42 52 -17 -4 -48 28 -42 44 5 12
-7 19 -29 15 -5 0 -8 6 -8 14 0 8 -4 15 -9 15 -14 0 -53 68 -46 80 3 6 -1 13
-9 16 -11 4 -15 19 -15 53 1 76 -9 169 -20 188 -10 17 -10 17 -11 1 0 -10 -4
-18 -9 -18 -15 0 -28 24 -35 64 -4 21 -18 61 -31 90 -44 96 -43 336 2 336 7 0
13 -4 13 -10 0 -5 5 -10 10 -10 6 0 10 11 10 25 0 20 5 25 23 25 13 0 26 2 28
5 3 2 2 30 -1 61 -4 31 -3 76 0 100 4 24 3 47 -1 51 -8 9 -11 60 -10 176 1 70
3 78 23 86 22 8 22 8 -5 26 -15 9 -27 20 -27 24 0 4 14 21 30 39 17 18 30 40
30 48 0 21 30 17 38 -6 l7 -20 18 20 c9 11 13 20 9 20 -5 0 -14 11 -20 25 -9
20 -16 24 -28 17 -10 -6 -27 -3 -49 7 -27 13 -33 20 -28 38 3 12 -2 36 -11 54
-9 18 -16 40 -16 50 0 16 -2 16 -30 3 -16 -9 -30 -20 -30 -25 0 -16 -36 -10
-54 10 -10 11 -24 17 -32 14 -18 -7 -30 25 -17 46 7 11 7 23 2 34 -5 9 -7 29
-5 44 4 17 -1 34 -10 44 -9 10 -13 22 -10 28 4 5 2 12 -4 16 -5 3 -7 19 -3 35
5 27 3 30 -18 30 -22 1 -23 2 -6 14 9 7 17 16 17 20 0 11 -58 6 -62 -5z m262
-377 c0 -24 -35 -57 -44 -43 -8 12 21 61 35 61 5 0 9 -8 9 -18z m0 -308 c11
-29 -1 -54 -26 -54 -18 0 -18 46 -1 65 16 19 16 19 27 -11z m0 -164 c0 -11 -7
-20 -15 -20 -27 0 -18 30 13 39 1 1 2 -8 2 -19z m-132 -252 c16 -16 15 -38 -2
-38 -18 0 -39 27 -31 40 8 13 18 13 33 -2z m128 -832 c3 -13 15 -26 26 -29 31
-9 16 -33 -18 -28 -34 4 -44 16 -44 54 0 34 27 37 36 3z m-8 -91 c17 -37 15
-57 -5 -53 -13 2 -19 14 -21 41 -4 43 9 49 26 12z"/>
<path d="M1420 7035 c0 -9 6 -12 15 -9 8 4 15 10 15 15 0 5 -7 9 -15 9 -8 0
-15 -7 -15 -15z"/>
<path d="M1473 7035 c12 -12 13 -20 3 -49 -7 -20 -15 -39 -19 -42 -4 -4 -7
-25 -7 -47 0 -39 0 -40 20 -22 11 10 20 32 21 49 3 84 32 106 61 46 22 -46 22
-51 -6 -92 -16 -24 -21 -40 -15 -49 7 -11 10 -9 15 9 4 12 10 22 14 22 5 0 12
9 15 20 3 11 13 20 21 20 8 0 14 5 14 10 0 6 11 10 25 10 16 0 25 -6 25 -15 0
-8 4 -15 9 -15 17 0 26 24 26 67 1 37 -1 40 -18 31 -10 -5 -30 -7 -43 -4 -18
5 -24 2 -24 -10 0 -23 -44 -14 -49 11 -8 41 -32 65 -68 65 -30 0 -33 -2 -20
-15z"/>
<path d="M1860 7040 c0 -5 5 -10 10 -10 6 0 10 5 10 10 0 6 -4 10 -10 10 -5 0
-10 -4 -10 -10z"/>
<path d="M2558 7042 c9 -6 10 -16 4 -33 -6 -15 -5 -48 1 -86 8 -48 8 -68 -2
-86 -10 -18 -10 -30 -2 -45 12 -23 10 -200 -3 -220 -12 -19 -18 -81 -21 -197
l-2 -100 -36 -18 c-40 -19 -45 -28 -22 -47 8 -7 15 -21 15 -31 0 -10 5 -21 11
-25 8 -4 7 -9 -2 -16 -10 -6 -7 -7 9 -3 20 6 22 3 23 -32 0 -21 3 -75 5 -120
3 -46 2 -83 -3 -83 -4 0 -8 -19 -9 -42 -3 -159 -8 -219 -21 -229 -17 -15 -17
-29 2 -29 8 0 15 -4 15 -10 0 -5 -6 -10 -14 -10 -17 0 -26 -78 -15 -127 4 -18
3 -33 -1 -33 -4 0 -5 -12 -2 -26 3 -15 -1 -29 -8 -34 -9 -6 -9 -19 -1 -62 7
-30 10 -70 9 -89 -3 -29 0 -34 17 -31 11 1 45 4 75 7 58 5 49 0 -38 -16 -99
-20 -147 -89 -158 -229 -3 -36 -10 -75 -16 -87 -8 -17 -8 -26 3 -39 7 -9 15
-28 17 -43 11 -93 71 -266 119 -345 l36 -59 -1 -270 c-1 -238 0 -273 15 -289
15 -17 15 -18 -5 -18 -39 0 -31 -16 14 -29 53 -16 59 -32 7 -20 -21 5 -43 9
-50 9 -12 0 -6 -37 9 -57 5 -7 7 -17 3 -23 -4 -6 15 -11 54 -11 34 -1 67 -2
73 -3 7 -1 14 8 16 18 3 14 0 17 -12 13 -8 -3 -18 -2 -22 4 -3 5 -7 69 -9 142
-2 73 -8 159 -14 192 -13 72 -1 285 17 306 72 84 152 211 227 361 59 117 70
147 73 201 3 43 -1 75 -12 101 -21 50 -21 53 10 59 38 7 64 -3 64 -24 0 -11 9
-27 20 -36 12 -11 20 -30 20 -48 0 -46 19 -144 37 -193 12 -33 13 -48 5 -67
-6 -14 -8 -33 -5 -42 6 -16 5 -16 -10 -5 -14 12 -20 11 -41 -5 -14 -10 -28
-26 -31 -35 -3 -9 -15 -20 -25 -23 -21 -7 -36 -46 -26 -64 4 -5 -1 -14 -11
-20 -16 -8 -15 -11 9 -21 24 -12 46 -55 33 -68 -3 -3 -5 1 -5 9 -1 27 -24 -25
-30 -69 l-7 -44 31 6 c44 9 80 39 84 69 3 28 9 32 28 19 13 -7 12 -151 -1
-171 -7 -13 -35 -15 -35 -3 0 14 -74 46 -100 43 -14 -1 -40 -11 -58 -22 -18
-10 -40 -19 -49 -19 -9 0 -13 -3 -10 -7 11 -11 -13 -32 -30 -26 -21 8 -32 -14
-28 -60 5 -50 25 -67 119 -97 80 -26 90 -38 61 -76 -14 -18 -14 -18 -15 0 0
14 -6 17 -25 14 -17 -4 -29 0 -34 10 -8 14 -12 14 -37 -3 -47 -30 -76 -63 -68
-76 4 -7 3 -9 -2 -6 -5 3 -14 -9 -20 -28 -8 -26 -8 -32 3 -28 18 7 17 -38 -3
-73 l-15 -29 3 42 c3 31 0 39 -8 32 -17 -14 -22 -66 -12 -116 8 -37 13 -43 31
-41 17 2 22 -2 21 -19 0 -13 3 -23 8 -23 4 0 8 -13 8 -29 0 -40 18 -49 26 -14
18 85 36 105 76 86 49 -22 97 -33 149 -33 77 0 159 -11 159 -21 0 -5 -13 -9
-29 -9 -17 0 -33 -4 -36 -10 -9 -14 4 -32 17 -24 16 10 68 11 68 1 0 -5 5 -5
12 -1 7 4 35 9 63 10 27 1 75 5 105 10 30 4 72 7 93 8 21 0 37 5 37 12 0 23
55 1 87 -36 22 -24 41 -36 56 -35 14 2 20 8 18 16 -3 8 -4 41 -2 75 3 87 -51
213 -86 200 -8 -3 -12 -2 -9 3 3 4 -4 17 -16 27 -21 19 -21 19 -15 -6 6 -24 5
-23 -23 8 -34 37 -44 40 -35 12 7 -24 -13 -28 -22 -4 -3 9 -12 13 -21 9 -8 -3
-23 4 -35 15 -10 12 -25 19 -33 16 -9 -3 -14 1 -14 13 0 13 -10 21 -34 25 -22
4 -37 14 -41 26 -4 13 -14 19 -28 17 -16 -1 -23 4 -25 21 -3 18 -7 21 -16 12
-10 -7 -17 -6 -27 6 -15 19 -4 28 51 44 63 18 100 64 100 121 0 68 -112 249
-154 249 -25 0 -66 22 -66 36 0 8 -6 11 -15 8 -8 -4 -15 -15 -15 -25 0 -13 -7
-19 -24 -19 -14 0 -28 5 -31 10 -3 6 -16 10 -28 11 -18 0 -17 3 10 15 26 11
52 49 44 63 -2 2 3 7 10 12 10 6 10 16 2 43 -13 42 0 48 35 16 12 -12 22 -16
22 -10 0 5 5 10 11 10 6 0 9 -7 6 -15 -4 -8 -2 -17 3 -20 6 -4 10 1 10 9 0 24
8 20 55 -26 63 -62 194 -138 283 -164 44 -12 119 -24 171 -27 51 -3 95 -8 98
-11 4 -3 12 -1 18 4 7 6 40 11 74 12 33 1 61 5 61 9 0 7 48 20 99 26 19 2 39
10 45 18 6 7 20 15 31 17 16 2 20 -3 20 -23 1 -33 26 -109 36 -109 13 0 19
-32 8 -46 -6 -7 -8 -18 -4 -24 3 -5 -1 -10 -9 -10 -15 0 -20 21 -19 67 0 7 -9
15 -21 19 -11 4 -24 12 -28 18 -5 7 -8 4 -8 -6 0 -11 8 -18 20 -18 14 0 20 -7
20 -21 0 -13 -6 -20 -17 -18 -40 4 -45 0 -29 -23 21 -30 20 -38 -4 -38 -13 0
-20 -7 -20 -20 0 -13 7 -20 20 -20 11 0 20 7 20 15 0 16 15 20 24 7 6 -9 -29
-42 -44 -42 -6 0 -10 -12 -10 -26 0 -20 -4 -24 -19 -19 -12 3 -21 0 -25 -10
-3 -8 -13 -15 -23 -15 -15 0 -18 -7 -15 -45 3 -28 0 -45 -7 -45 -6 0 -8 11 -5
28 5 29 -13 67 -23 45 -2 -7 -14 -13 -26 -13 -21 0 -21 0 2 -21 12 -12 20 -27
17 -35 -4 -11 4 -14 33 -14 36 0 39 -2 45 -35 4 -19 11 -35 15 -35 5 0 8 -20
7 -45 0 -25 -4 -45 -8 -45 -5 0 -8 -19 -9 -42 0 -29 -3 -37 -8 -25 -6 17 -8
18 -21 3 -9 -12 -22 -15 -40 -11 -24 5 -28 2 -41 -37 -7 -24 -12 -51 -11 -60
1 -10 -3 -18 -8 -18 -6 0 -10 12 -11 28 0 24 -1 25 -9 7 -4 -11 -6 -30 -3 -41
2 -12 0 -25 -6 -28 -6 -4 -11 -2 -11 5 0 7 -2 10 -5 7 -3 -3 -1 -18 5 -34 9
-25 8 -26 -3 -12 -12 15 -14 15 -24 0 -10 -15 -12 -14 -13 8 -2 22 -3 20 -12
-10 -8 -27 -7 -36 6 -46 17 -12 22 -34 7 -34 -5 0 -12 6 -14 13 -3 6 -6 1 -6
-12 -1 -16 -5 -21 -16 -17 -11 4 -15 -1 -15 -17 0 -18 2 -19 10 -7 10 16 13 8
10 -28 -1 -13 4 -21 11 -20 18 5 22 -18 5 -35 -9 -9 -25 -13 -38 -10 -21 5
-21 4 -7 -8 26 -21 30 -79 8 -103 -19 -20 -19 -20 -20 10 l-1 29 -8 -30 c-4
-16 -8 -24 -9 -17 -1 17 -40 15 -47 -3 -4 -9 -11 -15 -18 -14 -38 5 -45 -1
-39 -31 5 -25 3 -29 -11 -24 -10 4 -16 1 -16 -7 0 -14 -54 -19 -67 -6 -13 14
-24 6 -21 -15 2 -11 -3 -23 -9 -25 -7 -3 -13 4 -14 14 0 14 -2 15 -6 3 -3 -8
-17 -26 -31 -40 l-25 -25 5 27 c5 24 -6 38 -29 38 -3 0 -3 -26 0 -57 5 -54 5
-56 -8 -33 -9 15 -14 19 -15 10 0 -9 -3 -11 -8 -5 -13 19 -42 14 -42 -7 0 -14
-5 -18 -15 -14 -9 3 -15 0 -15 -9 0 -8 -5 -15 -11 -15 -6 0 -8 8 -4 19 3 11 2
22 -3 25 -6 3 -12 -4 -15 -15 -6 -23 -27 -17 -27 7 0 8 -4 14 -9 14 -5 0 -7
-10 -4 -22 5 -23 5 -23 -10 -3 -8 11 -17 32 -20 45 -3 14 -3 -4 0 -40 4 -58 3
-63 -10 -47 -14 16 -16 17 -24 3 -8 -14 -12 -14 -32 6 -22 20 -25 20 -36 5
-22 -30 -37 -20 -29 19 l7 37 -22 -22 c-11 -11 -21 -29 -22 -38 0 -13 -3 -12
-10 5 -10 27 -4 42 17 42 23 0 16 40 -8 49 -30 11 -36 4 -12 -13 19 -14 19
-15 -1 -21 -11 -4 -29 -10 -40 -15 -17 -7 -17 -9 -2 -9 16 -1 24 -31 11 -44
-9 -9 -34 19 -34 37 0 9 -4 16 -10 16 -5 0 -10 -9 -10 -20 0 -11 5 -20 10 -20
6 0 10 -7 10 -16 0 -13 -3 -14 -13 -5 -8 6 -17 8 -20 4 -4 -3 -7 1 -7 10 0 9
-4 17 -10 17 -5 0 -10 -4 -10 -10 0 -5 -5 -10 -11 -10 -6 0 -9 7 -6 15 4 8 2
17 -3 20 -16 10 -11 25 8 22 9 -1 17 3 17 8 0 6 -4 9 -8 7 -4 -1 -11 6 -14 15
-6 15 -8 14 -13 -7 -4 -16 -13 -25 -25 -25 -11 0 -26 -4 -32 -8 -9 -5 -13 -3
-13 7 0 8 5 18 10 21 13 8 13 25 1 25 -19 0 -53 -62 -64 -119 -10 -49 -15 -58
-27 -51 -12 8 -12 10 -1 10 9 0 12 8 9 25 -3 14 -1 28 3 31 5 3 9 16 9 30 0
13 4 24 10 24 5 0 7 6 4 14 -3 8 3 19 14 25 11 6 22 18 26 26 4 13 1 15 -14
10 -15 -5 -18 -3 -14 10 4 9 13 14 20 11 11 -4 13 1 9 17 -4 13 -1 43 5 67 7
25 17 76 23 113 10 61 9 72 -8 105 -29 57 -37 65 -46 50 -10 -16 -20 -7 -22
21 -1 11 -5 21 -9 21 -4 0 -11 19 -15 43 l-9 42 -229 9 c-332 12 -784 9 -1140
-8 -275 -13 -855 -26 -1202 -26 l-123 0 0 -111 0 -110 62 2 c59 3 63 1 69 -22
7 -23 7 -23 8 -2 1 12 4 24 8 26 5 3 47 8 94 12 l87 7 10 -39 10 -38 1 38 1
37 83 0 c81 0 83 -1 94 -27 l11 -28 1 33 1 33 103 -2 c56 0 171 2 254 6 l153
8 9 -24 c10 -24 10 -24 10 4 1 24 4 27 39 27 20 0 54 3 74 6 35 6 38 4 53 -27
l15 -34 -5 33 c-4 27 -1 32 15 32 11 0 30 -10 42 -22 13 -13 26 -23 29 -23 4
0 16 -11 28 -25 l20 -25 1 28 c0 15 4 27 10 27 13 0 30 -34 30 -59 0 -11 4
-22 9 -25 5 -4 7 11 4 33 -3 21 -1 41 5 45 5 3 10 -6 11 -22 2 -64 1 -63 50
-60 47 3 47 2 42 53 0 8 -7 12 -15 9 -8 -3 -23 7 -35 25 -12 17 -35 33 -54 37
l-32 8 40 7 c64 12 85 11 85 -7 0 -8 4 -13 9 -10 9 6 15 -8 35 -79 17 -57 26
-30 11 30 -14 55 -7 70 30 58 17 -5 18 -4 6 11 -12 14 -9 16 33 16 42 0 46 -2
46 -24 0 -14 4 -28 10 -31 6 -4 7 6 4 24 -5 21 -2 32 7 35 32 11 731 30 777
21 30 -5 32 -9 32 -46 0 -24 -4 -38 -10 -34 -5 3 -10 -1 -10 -9 0 -9 8 -16 18
-17 59 -2 74 -15 28 -23 -24 -5 -33 -11 -30 -20 3 -8 0 -17 -5 -21 -6 -3 -8
-12 -4 -18 4 -7 9 -20 10 -31 3 -14 -1 -17 -17 -13 -24 6 -27 -8 -4 -17 10 -4
15 -17 14 -38 -4 -73 -2 -79 25 -72 19 5 25 2 25 -9 0 -9 -10 -17 -22 -19 -21
-3 -23 -9 -26 -70 -3 -70 5 -83 34 -53 9 8 27 15 42 15 15 1 38 7 52 15 33 19
50 19 50 -1 0 -8 -4 -13 -9 -9 -5 3 -12 1 -15 -4 -3 -4 -19 -11 -36 -14 -38
-8 -117 -44 -125 -57 -4 -6 -10 -8 -15 -5 -4 3 -13 -2 -20 -10 -7 -8 -19 -15
-27 -15 -8 0 -28 -7 -45 -16 -24 -12 -28 -18 -17 -25 11 -7 9 -9 -7 -9 -14 0
-24 -8 -28 -22 -6 -21 -7 -22 -17 -5 -8 13 -14 15 -29 7 -10 -5 -29 -11 -42
-11 -19 -1 -18 -3 7 -9 17 -4 22 -8 13 -9 -9 0 -24 -8 -33 -17 -15 -16 -16
-16 -13 2 2 15 -2 18 -22 15 -28 -3 -42 -19 -35 -38 2 -7 1 -13 -4 -13 -5 0
-12 11 -15 25 -5 18 -11 23 -23 18 -11 -4 -13 -8 -5 -11 16 -5 15 -22 -1 -22
-7 0 -21 -10 -31 -21 -14 -16 -15 -23 -6 -29 9 -6 7 -11 -8 -19 -27 -15 -37
-14 -24 2 6 7 7 18 2 26 -5 10 -1 20 13 32 14 11 17 18 9 19 -13 0 -25 -10
-50 -42 -9 -12 -10 -22 -4 -35 8 -14 5 -22 -14 -36 -24 -18 -34 -11 -13 10 7
7 9 19 5 29 -6 15 -13 11 -46 -25 -21 -23 -42 -41 -47 -40 -12 3 -43 -12 -43
-21 0 -5 11 -7 25 -5 15 1 25 -3 25 -10 0 -18 -32 -28 -41 -13 -6 9 -11 9 -22
0 -7 -7 -18 -8 -22 -4 -5 4 -5 1 -1 -6 4 -7 1 -12 -8 -12 -10 0 -13 -8 -11
-30 3 -25 2 -28 -9 -17 -15 13 -8 42 19 80 10 15 15 17 15 7 0 -13 2 -13 9 -1
5 8 7 20 4 27 -5 14 30 37 41 27 3 -3 6 1 6 10 0 8 12 20 28 25 21 8 23 11 7
11 -11 0 -53 -18 -94 -40 -65 -35 -90 -52 -148 -99 -7 -6 -17 -10 -23 -10 -5
0 -10 -4 -10 -8 0 -5 -13 -24 -30 -42 -16 -18 -30 -38 -30 -42 0 -18 -62 -159
-68 -154 -6 7 -50 -41 -63 -69 -10 -23 -15 -30 -92 -147 -57 -88 -87 -145 -54
-103 12 15 16 16 16 5 0 -26 -24 -51 -37 -38 -8 8 -17 1 -34 -28 -13 -21 -23
-41 -23 -44 -1 -6 -37 -62 -45 -70 -3 -3 -18 -31 -34 -62 -16 -32 -33 -58 -38
-58 -8 0 64 144 83 165 11 12 12 25 1 25 -11 0 -152 -141 -152 -151 0 -4 -6
-14 -13 -21 -53 -56 -126 -212 -138 -296 -6 -37 -12 -78 -14 -92 -2 -14 -4
-29 -4 -35 -1 -5 -6 -3 -12 5 -9 12 -10 11 -6 -8 3 -12 1 -20 -3 -17 -5 3 -14
-3 -19 -14 -8 -14 -8 -21 2 -24 8 -4 8 -8 2 -14 -6 -4 -16 -20 -24 -35 -8 -16
-18 -28 -23 -28 -4 0 -8 -11 -8 -25 0 -14 -5 -24 -11 -22 -5 1 -20 -15 -32
-36 -19 -32 -20 -39 -7 -47 13 -9 13 -11 0 -20 -15 -9 -16 -12 -19 -52 -2 -22
-2 -22 -16 -5 -13 18 -14 18 -25 -3 -9 -16 -8 -25 2 -38 11 -13 11 -15 -4 -9
-30 11 -50 -3 -43 -30 3 -14 2 -22 -3 -19 -5 3 -14 -21 -19 -54 -5 -33 -8 -60
-7 -60 1 0 10 7 18 16 15 14 16 14 16 -1 0 -8 -6 -18 -14 -21 -8 -3 -18 -22
-22 -42 l-8 -37 -5 33 -6 33 -39 -53 c-22 -29 -59 -76 -82 -104 -39 -46 -62
-88 -93 -167 -6 -15 -15 -26 -19 -25 -7 2 -114 -91 -208 -181 -2 -2 -4 -2 -4
1 0 3 18 28 40 54 39 48 54 104 31 119 -15 9 -25 -16 -22 -57 1 -32 -1 -38
-19 -38 -16 0 -20 6 -20 29 0 17 4 33 10 36 5 3 10 15 10 27 0 11 8 22 20 25
23 6 34 35 25 64 -5 14 -12 18 -23 13 -10 -3 -24 -7 -32 -8 -29 -3 -42 -18
-36 -40 3 -12 -1 -31 -8 -42 -8 -11 -16 -36 -18 -55 -2 -27 -8 -35 -26 -37
-21 -3 -23 -1 -17 18 5 15 4 20 -4 16 -8 -5 -11 13 -13 58 0 36 -1 70 -2 76
-1 5 7 21 18 34 17 23 22 25 82 19 43 -4 64 -2 64 5 0 6 -4 14 -10 17 -15 9
-12 42 4 48 9 4 12 14 9 26 -3 12 -1 21 5 21 6 0 13 -64 17 -159 l7 -160 36
35 c59 57 142 185 142 219 0 72 -5 76 -86 74 -82 -2 -99 5 -69 28 20 14 20 14
0 11 -15 -2 -21 4 -26 27 -7 29 -7 29 -8 -7 -1 -35 -3 -38 -43 -48 -24 -6 -64
-18 -90 -27 -26 -9 -50 -15 -52 -12 -3 3 -9 54 -14 115 l-9 109 -2 -123 c-1
-99 -4 -124 -16 -128 -8 -4 -15 -12 -15 -20 0 -7 6 -11 14 -8 9 4 15 -5 18
-26 6 -40 7 -284 2 -250 -10 55 -15 70 -24 70 -6 0 -10 -59 -10 -150 l0 -150
29 0 c20 0 36 8 50 27 11 16 21 23 21 16 0 -6 -5 -15 -10 -18 -6 -3 -10 -10
-10 -16 0 -5 471 -9 1229 -9 967 0 1230 3 1234 13 4 8 6 8 6 -2 1 -11 5 -10
16 5 12 16 14 16 15 3 0 -13 16 -16 103 -16 67 -1 105 3 109 10 6 9 8 9 8 0 0
-7 12 -13 26 -13 14 0 23 4 19 10 -3 5 -1 10 4 10 6 0 11 -4 11 -10 0 -5 7
-10 16 -10 8 0 12 5 9 10 -3 6 -1 10 4 10 6 0 11 -4 11 -9 0 -16 547 -14 553
2 4 9 6 9 6 0 1 -10 367 -13 1796 -13 l1795 0 0 581 c0 461 -3 579 -12 573
-10 -6 -10 -5 -1 7 16 20 18 1747 2 1946 -9 108 -15 141 -24 133 -6 -5 -15 -7
-18 -4 -4 4 -11 -6 -17 -22 -5 -16 -14 -36 -19 -44 -5 -9 -6 -39 -3 -68 5 -56
3 -58 -31 -40 -12 6 -57 21 -99 32 -69 19 -80 26 -107 63 -38 53 -128 125
-204 164 -52 27 -156 59 -337 105 -30 7 -111 23 -180 34 -69 11 -135 23 -147
25 -26 6 -88 91 -78 108 3 7 12 23 20 37 8 13 11 27 7 30 -12 9 -30 90 -21 96
5 2 6 18 2 34 -5 25 -2 30 14 30 38 0 222 -100 239 -130 9 -15 32 -35 51 -44
l33 -16 -16 33 c-9 17 -25 43 -35 56 -11 13 -19 30 -19 38 0 7 -18 30 -40 51
-23 20 -52 56 -66 80 -26 43 -33 46 -96 43 -21 -2 -47 5 -62 15 l-27 17 4 146
c3 80 0 195 -5 254 -6 64 -6 113 -1 120 5 7 8 39 7 72 -1 33 2 65 7 71 6 7 4
16 -6 24 -13 11 -15 34 -11 135 2 68 7 128 11 135 4 7 2 16 -6 20 -10 7 -11
21 -2 72 6 37 7 70 2 80 -6 10 -5 19 1 23 6 4 10 23 10 43 0 63 6 148 12 158
6 8 3 232 -2 244 -7 14 -4 57 4 68 7 9 5 16 -5 23 -11 7 -9 9 8 9 26 0 32 8
33 46 1 82 -6 111 -32 143 -16 18 -29 36 -29 39 -1 4 -3 18 -5 32 -2 14 -8 57
-14 95 -7 39 -10 82 -7 98 2 15 0 27 -5 27 -5 0 -8 8 -7 18 1 9 1 26 0 37 -2
19 -3 19 -18 -2 -30 -43 -41 -25 -18 30 5 13 2 17 -13 17 -12 0 -25 7 -30 16
-6 11 -11 13 -16 5 -10 -16 -29 -14 -23 3 3 8 -7 31 -24 52 -16 20 -29 42 -29
48 0 6 -16 16 -35 22 -28 9 -35 8 -35 -2 0 -8 -6 -11 -15 -8 -11 5 -13 10 -5
19 8 10 1 21 -30 47 -22 19 -40 39 -40 44 0 9 -44 31 -125 61 -22 9 -49 25
-60 37 -12 12 -29 20 -42 18 -13 -2 -23 1 -23 7 0 6 -7 8 -15 5 -16 -7 -85 32
-85 47 0 6 -6 9 -12 8 -7 -1 -20 1 -28 4 -8 4 -33 11 -55 16 -71 17 -225 60
-233 65 -4 2 -30 5 -57 7 -28 1 -54 5 -60 8 -23 13 -118 17 -136 6 -4 -3 -26
-1 -48 4 -23 5 -43 5 -46 1 -3 -5 -18 -5 -34 0 -16 4 -32 6 -35 3 -7 -8 -87
-16 -148 -16 -27 0 -48 -3 -48 -6 0 -12 -107 -32 -197 -37 -48 -3 -99 -7 -113
-9 -14 -2 -44 -4 -68 -4 -26 -1 -41 -5 -37 -11 3 -5 -3 -10 -14 -10 -12 0 -21
5 -21 10 0 6 -5 10 -11 10 -5 0 -7 -4 -4 -10 6 -10 -36 -15 -97 -13 -16 1 -28
-2 -28 -6 0 -3 -17 -7 -37 -8 -21 -1 -55 -10 -76 -22 -21 -11 -45 -17 -53 -14
-8 3 -14 0 -14 -7 0 -7 -8 -10 -20 -7 -13 3 -20 0 -20 -9 0 -8 7 -14 16 -14 8
0 13 -4 9 -9 -3 -6 -28 -8 -55 -6 -47 3 -50 1 -69 -30 -18 -31 -65 -55 -108
-55 -7 0 -13 -5 -13 -11 0 -6 -7 -17 -15 -25 -8 -9 -15 -21 -14 -27 0 -9 2 -8
6 1 2 6 10 12 16 12 6 0 -3 -13 -21 -30 -20 -18 -30 -35 -26 -42 5 -8 2 -9 -9
-5 -11 4 -17 1 -17 -8 0 -8 7 -15 15 -15 9 0 15 -9 15 -25 0 -16 -6 -25 -15
-25 -8 0 -15 -6 -15 -14 0 -8 -7 -16 -15 -20 -19 -7 -8 -36 14 -36 14 -1 14
-2 -1 -11 -10 -5 -18 -20 -18 -31 0 -21 1 -21 14 -3 13 18 14 18 20 -3 4 -12
12 -22 17 -22 6 0 8 -4 5 -9 -9 -14 37 0 56 17 10 8 15 19 12 23 -3 5 1 9 9 9
8 0 18 -7 21 -16 9 -22 8 -24 -11 -24 -15 0 -16 -2 -3 -10 12 -8 11 -10 -5 -8
-41 3 -55 -2 -55 -21 0 -23 24 -44 53 -46 11 -1 41 13 65 32 38 29 51 33 103
33 33 0 69 5 80 10 14 8 19 7 19 -2 0 -8 3 -9 8 -3 11 15 71 35 88 28 9 -3 14
1 14 12 0 14 3 15 15 5 8 -6 19 -9 24 -6 5 4 28 2 50 -3 24 -5 39 -5 35 0 -8
14 40 11 54 -3 7 -7 12 -22 12 -35 0 -14 6 -23 15 -23 8 0 15 -7 15 -15 0 -10
11 -15 35 -15 25 0 35 -4 35 -16 0 -12 7 -14 30 -9 23 5 29 3 25 -7 -3 -7 4
-19 15 -25 16 -11 18 -10 14 2 -7 16 12 18 56 6 l25 -7 -24 -6 c-38 -11 -13
-28 40 -28 31 0 48 -4 44 -10 -3 -5 -2 -10 4 -10 5 0 11 5 13 11 3 8 10 8 26
-2 18 -11 26 -11 42 -1 12 7 25 10 31 7 5 -4 12 8 15 24 5 26 9 29 21 19 8 -6
12 -20 9 -31 -7 -27 15 -48 35 -33 14 11 32 43 43 79 7 22 24 22 22 0 0 -11
10 -20 29 -26 56 -17 75 -27 75 -36 0 -5 -6 -11 -12 -14 -7 -2 1 -2 17 1 17 2
32 8 33 13 7 17 22 9 22 -11 0 -11 5 -20 11 -20 6 0 8 -8 4 -19 -3 -11 1 -26
11 -35 12 -13 13 -20 5 -30 -7 -8 -9 -25 -6 -39 5 -20 2 -27 -14 -32 -23 -7
-27 -21 -8 -28 8 -4 9 -8 2 -14 -25 -19 -50 -71 -55 -113 -4 -39 -8 -45 -27
-43 -16 2 -21 -2 -17 -12 4 -9 0 -15 -10 -15 -20 0 -21 -14 0 -31 8 -7 13 -21
10 -31 -3 -14 3 -22 20 -28 27 -11 30 -20 12 -38 -9 -9 -9 -15 0 -24 7 -7 12
-24 12 -39 0 -21 -5 -28 -22 -31 -13 -2 -22 -7 -21 -13 3 -16 20 -17 36 0 22
22 47 19 47 -6 0 -11 -4 -17 -10 -14 -13 8 -46 -10 -53 -29 -3 -8 -2 -29 3
-47 11 -39 -8 -64 -56 -71 -16 -3 -23 -3 -16 -1 9 4 9 9 -3 26 -8 12 -15 29
-15 39 0 10 -4 18 -10 18 -6 0 -7 -18 -3 -46 5 -38 3 -46 -8 -42 -8 3 -14 16
-14 29 0 13 -6 33 -12 44 -12 19 -12 19 -13 -7 0 -39 -10 -58 -30 -58 -16 0
-18 6 -13 38 3 20 10 39 14 42 4 3 4 12 -1 20 -7 11 -10 12 -10 2 0 -22 -30
-46 -42 -34 -8 8 -18 6 -35 -5 -19 -13 -29 -14 -48 -5 -15 7 -22 17 -19 26 3
8 1 17 -5 21 -6 3 -14 -1 -17 -10 -5 -12 -9 -13 -20 -4 -13 10 -18 6 -15 -13
2 -11 -57 -10 -64 1 -3 5 -21 8 -40 6 -19 -2 -38 1 -41 6 -3 5 -12 9 -21 9 -9
0 -24 6 -32 13 -26 22 -92 37 -112 27 -9 -6 -32 -7 -50 -3 -21 4 -30 3 -26 -4
5 -7 -24 -11 -86 -11 -60 -1 -118 -8 -167 -22 -41 -12 -93 -23 -115 -25 -22
-2 -96 -15 -165 -29 -69 -14 -170 -28 -225 -32 -55 -3 -112 -9 -127 -14 -26
-8 -26 -7 -18 16 5 13 12 50 15 81 6 63 15 83 16 37 1 -24 6 -17 35 44 l34 73
-11 97 c-12 111 -27 197 -40 230 -14 35 -11 60 8 70 15 9 14 11 -5 21 -20 11
-21 17 -16 139 6 158 9 172 34 172 11 0 22 9 26 23 4 12 12 25 18 29 7 5 6 8
-4 8 -25 0 -49 60 -49 123 1 31 5 57 10 57 5 0 18 19 30 41 11 23 29 43 39 46
11 3 16 11 13 20 -5 13 -1 32 33 139 10 32 10 49 2 72 -17 44 3 97 57 156 25
27 45 52 45 56 0 4 11 20 25 36 14 16 32 42 40 57 l14 28 -32 -3 c-27 -3 -32
-7 -35 -33 -2 -18 -18 -45 -38 -65 -18 -19 -42 -45 -51 -57 -13 -17 -22 -20
-33 -13 -12 8 -11 15 8 54 12 26 26 46 31 46 13 0 20 25 14 49 -3 14 -13 21
-28 21 -27 0 -36 -21 -40 -85 -2 -53 -12 -70 -30 -55 -9 8 -14 6 -19 -5 -8
-22 -25 -18 -19 5 4 16 2 19 -11 14 -14 -5 -16 3 -16 60 l0 66 -97 0 c-55 0
-92 -4 -85 -8z m229 -232 c2 -25 -4 -44 -22 -65 l-25 -30 0 52 c0 63 8 85 29
81 10 -2 17 -15 18 -38z m51 -147 c-4 -61 -49 -174 -56 -140 -5 25 -22 21 -19
-5 1 -15 -3 -23 -13 -23 -11 0 -14 11 -13 44 2 25 7 49 13 55 5 5 10 20 10 33
0 13 5 23 10 23 6 0 10 6 10 13 0 6 9 27 21 46 28 46 43 29 37 -46z m232 -477
c0 -3 -4 -8 -10 -11 -5 -3 -10 -1 -10 4 0 6 5 11 10 11 6 0 10 -2 10 -4z m655
-16 c3 -5 -3 -10 -14 -10 -12 0 -21 5 -21 10 0 6 6 10 14 10 8 0 18 -4 21 -10z
m40 -60 c-3 -5 -10 -10 -16 -10 -5 0 -9 5 -9 10 0 6 7 10 16 10 8 0 12 -4 9
-10z m345 -14 c0 -8 -5 -18 -10 -21 -6 -4 -8 -11 -5 -16 3 -5 -1 -6 -9 -3 -9
3 -16 2 -16 -4 0 -6 6 -12 13 -15 6 -2 9 -8 5 -12 -10 -10 -53 2 -72 20 -8 8
-20 15 -26 15 -6 0 -8 5 -4 11 4 8 9 8 17 0 17 -17 37 -13 30 5 -7 20 13 34
50 34 17 0 27 -5 27 -14z m307 -668 c-3 -8 -6 -5 -6 6 -1 11 2 17 5 13 3 -3 4
-12 1 -19z m-1047 -173 c0 -18 16 -20 23 -2 4 7 6 8 6 1 1 -6 -6 -17 -14 -24
-10 -9 -15 -9 -15 -1 0 6 -7 11 -15 11 -16 0 -20 12 -8 23 11 12 23 8 23 -8z
m373 -24 c38 -15 109 -93 95 -106 -2 -2 -30 1 -63 7 -33 5 -69 7 -81 4 -39
-10 -50 23 -28 92 4 14 43 16 77 3z m-606 -17 c-3 -3 -12 -4 -19 -1 -8 3 -5 6
6 6 11 1 17 -2 13 -5z m1271 -18 c-4 -18 -1 -23 10 -19 12 5 13 -2 7 -38 -9
-54 -10 -55 -60 -62 -22 -4 -33 -4 -25 0 8 3 25 17 37 31 20 23 20 27 6 49
-12 18 -12 23 -2 23 10 0 10 3 1 12 -18 18 -15 28 9 28 17 0 20 -5 17 -24z
m-1301 8 l22 -6 -25 -27 c-13 -14 -32 -45 -40 -68 -9 -24 -20 -43 -24 -43 -4
0 -5 -12 -2 -26 3 -19 1 -25 -7 -20 -6 4 -11 15 -11 25 0 34 -27 46 -81 35
-36 -8 -49 -7 -49 1 0 6 -16 26 -35 45 -24 24 -32 37 -25 44 6 6 59 18 118 27
133 20 132 20 159 13z m178 -4 c8 -13 -13 -40 -30 -40 -13 0 -27 35 -17 44 9
10 40 7 47 -4z m492 -107 c-23 -24 -30 -26 -47 -15 -12 7 -20 8 -20 2 0 -5 5
-10 11 -10 5 0 7 -4 4 -10 -3 -5 -1 -10 5 -10 6 0 8 -4 5 -10 -8 -13 -45 -13
-45 -1 0 5 6 11 13 14 6 2 0 8 -15 12 -18 4 -28 14 -28 25 0 20 21 26 100 29
l45 1 -28 -27z m-1308 -4 c-8 -17 -8 -23 2 -29 9 -6 9 -12 -4 -24 -29 -29 -45
-300 -20 -341 11 -17 12 -15 8 20 -2 22 -2 31 1 20 3 -11 12 -34 20 -52 8 -17
15 -44 17 -60 1 -15 13 -47 25 -70 17 -33 20 -50 14 -79 l-8 -38 -43 88 c-24
48 -40 90 -37 93 3 3 1 11 -4 18 -20 25 -37 148 -36 262 1 116 10 153 48 201
17 20 30 14 17 -9z m101 6 c0 -8 -4 -15 -9 -15 -5 0 -11 7 -15 15 -3 9 0 15 9
15 8 0 15 -7 15 -15z m-49 -10 c0 6 4 1 8 -10 9 -23 3 -47 -10 -39 -5 3 -9 0
-9 -5 0 -6 5 -11 10 -11 15 0 12 -26 -5 -40 -23 -19 -30 -5 -27 52 2 57 10 77
23 57 5 -8 9 -9 10 -4z m239 -3 c0 -4 -7 -18 -16 -30 -13 -18 -19 -21 -30 -11
-19 16 -18 37 4 42 29 8 42 7 42 -1z m1110 -31 c0 -12 -11 -23 -27 -29 -16 -6
-22 -11 -15 -11 19 -1 14 -28 -7 -34 -21 -5 -31 10 -31 44 0 12 12 24 33 33
43 19 47 19 47 -3z m1600 -3 c13 -17 15 -25 7 -30 -7 -4 4 -8 23 -9 23 -1 15
-4 -25 -9 -33 -4 -80 -16 -104 -28 -25 -12 -45 -21 -45 -19 -1 1 -7 12 -14 25
-10 19 -10 22 4 22 9 0 30 10 47 23 74 52 83 54 107 25z m-2907 -28 c-3 -11
-7 -20 -9 -20 -2 0 -4 9 -4 20 0 11 4 20 9 20 5 0 7 -9 4 -20z m1840 13 c-7
-2 -21 -2 -30 0 -10 3 -4 5 12 5 17 0 24 -2 18 -5z m-26 -19 c-3 -3 -12 -4
-19 -1 -8 3 -5 6 6 6 11 1 17 -2 13 -5z m-1910 -56 c-2 -13 -4 -5 -4 17 -1 22
1 32 4 23 2 -10 2 -28 0 -40z m2812 25 c-12 -15 -12 -16 3 -10 10 3 20 2 24
-4 3 -6 -3 -13 -14 -16 -13 -3 -23 -16 -27 -33 -6 -27 -55 -72 -55 -50 0 5 -9
10 -19 10 -11 0 -22 4 -25 9 -9 15 37 73 74 92 43 24 57 24 39 2z m-1405 -19
c13 -34 6 -50 -30 -63 -43 -16 -54 -8 -28 20 10 12 18 23 16 25 -3 6 21 33 29
34 4 0 10 -7 13 -16z m-1339 -54 c3 -5 1 -10 -4 -10 -6 0 -11 5 -11 10 0 6 2
10 4 10 3 0 8 -4 11 -10z m855 -10 c0 -5 -4 -10 -10 -10 -5 0 -10 5 -10 10 0
6 5 10 10 10 6 0 10 -4 10 -10z m2294 -88 c-5 -81 -20 -221 -27 -266 -2 -11
-9 -22 -16 -24 -8 -3 -10 4 -7 20 7 31 19 117 21 148 2 21 15 209 15 218 0 2
5 0 10 -3 6 -4 8 -39 4 -93z m-2344 58 c0 -5 -4 -10 -10 -10 -5 0 -10 5 -10
10 0 6 5 10 10 10 6 0 10 -4 10 -10z m-830 -52 c0 -5 -4 -8 -10 -8 -5 0 -10
10 -10 23 0 18 2 19 10 7 5 -8 10 -18 10 -22z m790 28 c0 -3 -4 -8 -10 -11 -5
-3 -10 -1 -10 4 0 6 5 11 10 11 6 0 10 -2 10 -4z m125 -6 c3 -5 1 -10 -4 -10
-6 0 -11 5 -11 10 0 6 2 10 4 10 3 0 8 -4 11 -10z m2220 -10 c3 -5 1 -19 -6
-31 -10 -20 -12 -21 -21 -5 -16 29 10 64 27 36z m-2215 -62 c0 -10 -4 -18 -10
-18 -5 0 -10 11 -10 24 0 14 -4 28 -10 31 -5 3 -10 2 -10 -4 0 -16 -41 -34
-52 -23 -6 6 0 17 18 31 l27 21 24 -22 c12 -12 23 -30 23 -40z m-693 -10 c-3
-7 -5 -2 -5 12 0 14 2 19 5 13 2 -7 2 -19 0 -25z m133 22 c0 -5 -2 -10 -4 -10
-3 0 -8 5 -11 10 -3 6 -1 10 4 10 6 0 11 -4 11 -10z m360 6 c0 -2 -7 -6 -15
-10 -8 -3 -15 -1 -15 4 0 6 7 10 15 10 8 0 15 -2 15 -4z m174 -55 c-2 -3 -12
3 -21 12 -14 14 -14 18 -2 33 12 15 14 14 21 -12 4 -15 5 -30 2 -33z m-619 29
c7 -23 -13 -56 -26 -43 -9 10 0 63 11 63 5 0 12 -9 15 -20z m35 -1 c0 -5 -4
-9 -10 -9 -5 0 -10 7 -10 16 0 8 5 12 10 9 6 -3 10 -10 10 -16z m500 1 c0 -5
-4 -10 -10 -10 -5 0 -10 5 -10 10 0 6 5 10 10 10 6 0 10 -4 10 -10z m50 -21
c0 -6 -4 -7 -10 -4 -5 3 -10 11 -10 16 0 6 5 7 10 4 6 -3 10 -11 10 -16z
m2045 11 c4 -6 14 -8 24 -5 38 12 88 -75 106 -183 12 -72 -54 -160 -101 -134
-13 7 -12 13 13 43 15 19 31 36 36 37 13 6 8 68 -9 108 -19 45 -100 123 -129
125 -17 1 -16 2 5 9 36 11 48 11 55 0z m-2691 -32 c13 -8 -2 -39 -22 -46 -13
-4 -16 35 -5 64 5 14 8 15 11 3 3 -7 10 -17 16 -21z m526 -13 c-7 -9 -15 -13
-18 -10 -3 2 1 11 8 20 7 9 15 13 18 10 3 -2 -1 -11 -8 -20z m-405 -14 c-3 -6
-11 -8 -17 -5 -6 4 -5 9 3 15 16 10 23 4 14 -10z m-320 -76 c15 -42 25 -78 22
-81 -5 -5 -41 83 -53 131 -12 50 4 23 31 -50z m3202 43 c-3 -7 -5 -2 -5 12 0
14 2 19 5 13 2 -7 2 -19 0 -25z m-2912 12 c3 -5 -1 -10 -9 -10 -9 0 -16 5 -16
10 0 6 4 10 9 10 6 0 13 -4 16 -10z m-150 -20 c-3 -5 -11 -10 -16 -10 -6 0 -7
5 -4 10 3 6 11 10 16 10 6 0 7 -4 4 -10z m139 -16 c10 -25 -1 -29 -14 -5 -6
12 -7 21 -1 21 5 0 12 -7 15 -16z m-37 -17 c8 -17 7 -26 -4 -36 -12 -11 -17
-11 -23 -1 -7 11 -13 10 -34 -4 -33 -21 -33 -12 0 31 29 39 47 42 61 10z
m-166 -20 c-8 -8 -11 -7 -11 4 0 20 13 34 18 19 3 -7 -1 -17 -7 -23z m-21 -23
c0 -8 -4 -12 -10 -9 -5 3 -10 13 -10 21 0 8 5 12 10 9 6 -3 10 -13 10 -21z
m159 -32 c0 -10 -3 -12 -5 -5 -9 21 -32 3 -26 -19 3 -14 1 -19 -6 -14 -17 10
-15 27 6 46 20 20 32 16 31 -8z m-119 -58 c0 -8 -4 -12 -10 -9 -5 3 -10 10
-10 16 0 5 5 9 10 9 6 0 10 -7 10 -16z m-27 -43 c-11 -8 -11 -61 1 -54 4 3 12
-1 17 -8 15 -23 10 -28 -15 -16 -24 12 -29 28 -20 75 3 13 9 20 15 16 6 -4 7
-9 2 -13z m1593 -61 c8 0 14 -5 14 -10 0 -6 -8 -10 -17 -8 -20 3 -36 45 -25
62 4 6 8 -1 10 -16 2 -16 9 -28 18 -28z m1389 -10 c-4 -6 -21 -17 -39 -24 -29
-12 -34 -20 -40 -60 -6 -36 -11 -46 -26 -46 -33 0 -68 21 -72 44 -7 37 2 45
54 52 39 5 57 14 82 40 25 26 33 30 39 18 4 -8 5 -19 2 -24z m-236 11 c2 0 -4
-13 -14 -27 -9 -15 -12 -23 -6 -20 6 4 11 1 11 -7 0 -8 9 -26 20 -40 11 -14
20 -32 20 -40 0 -23 -30 -29 -57 -11 -21 13 -24 22 -21 58 4 37 2 42 -15 42
-26 -1 -32 18 -12 37 12 13 47 16 74 8z m369 -193 c-2 -49 -7 -92 -11 -95 -5
-3 -5 -18 -2 -35 10 -42 -3 -102 -18 -90 -7 5 -27 13 -44 17 -21 4 -33 13 -33
23 0 15 22 84 77 240 23 64 35 41 31 -60z m-2583 42 c3 -5 4 -10 1 -10 -2 0
-12 -3 -20 -6 -12 -5 -15 -2 -10 10 7 18 20 21 29 6z m2134 -41 c37 -13 39
-23 9 -43 -45 -28 -98 -3 -77 36 11 21 24 22 68 7z m-1002 -61 c-3 -8 -6 -5
-6 6 -1 11 2 17 5 13 3 -3 4 -12 1 -19z m-136 -34 c12 -32 2 -47 -13 -19 -11
19 -11 19 -19 0 -7 -17 -8 -17 -8 6 -2 46 24 54 40 13z m-1047 -38 c-3 -9 -10
-13 -15 -10 -5 3 -3 11 4 19 15 16 19 13 11 -9z m-34 -25 c0 -5 -7 -14 -15
-21 -12 -10 -15 -10 -15 2 0 8 3 18 7 21 9 10 23 9 23 -2z m1045 -35 c12 -12
11 -15 -5 -19 -22 -6 -35 7 -25 23 8 13 14 13 30 -4z m1570 -56 c40 -41 36
-47 -23 -31 -39 11 -40 6 -7 -25 22 -20 25 -31 25 -89 0 -62 1 -66 20 -60 23
7 27 -10 4 -19 -8 -3 -12 -10 -9 -16 10 -16 -6 -12 -53 12 l-44 23 6 70 c12
138 18 175 30 175 7 0 30 -18 51 -40z m248 -34 c9 -7 22 -27 28 -45 6 -17 17
-31 24 -31 14 0 55 -46 55 -61 0 -21 -41 -6 -61 22 -12 17 -40 48 -62 68 -24
22 -37 43 -33 49 9 15 27 15 49 -2z m-1778 -26 c3 -5 1 -10 -4 -10 -6 0 -11 5
-11 10 0 6 2 10 4 10 3 0 8 -4 11 -10z m-1105 -46 c7 -7 25 -14 41 -14 23 0
29 -5 29 -21 0 -27 -16 -55 -35 -63 -9 -3 -14 -2 -10 3 3 5 0 11 -7 13 -7 3
-8 10 -4 17 7 11 10 11 17 0 7 -11 9 -11 9 -1 0 23 -30 25 -50 4 -10 -11 -32
-26 -49 -33 -17 -8 -33 -24 -36 -38 -4 -17 -9 -21 -17 -13 -8 8 -15 6 -26 -4
-26 -27 -92 0 -92 37 0 11 -7 19 -17 19 -13 0 -14 3 -5 12 7 7 12 20 12 30 0
10 7 18 16 18 9 0 25 11 35 24 17 22 27 24 98 24 58 1 83 -3 91 -14z m1078 -1
c-2 -9 -8 -18 -15 -20 -7 -3 -9 3 -6 16 6 25 26 28 21 4z m1592 3 c0 -3 -4 -8
-10 -11 -5 -3 -10 -1 -10 4 0 6 5 11 10 11 6 0 10 -2 10 -4z m-2486 -42 c16
-8 37 -14 48 -14 18 0 25 -15 10 -24 -8 -5 -133 27 -152 39 -5 3 -10 11 -10
16 0 12 65 2 104 -17z m886 -36 c0 -4 -6 -7 -12 -5 -14 2 -14 -6 -3 -35 4 -11
3 -18 -4 -18 -9 0 -16 33 -9 43 1 1 -4 12 -10 23 -6 12 -8 24 -5 28 7 7 43
-23 43 -36z m-960 -8 c0 -13 -5 -18 -15 -14 -16 7 -19 17 -8 27 12 13 23 7 23
-13z m195 -18 c-3 -3 -11 0 -18 7 -9 10 -8 11 6 5 10 -3 15 -9 12 -12z m39 2
c9 -3 16 -10 16 -14 0 -12 -33 -5 -38 8 -4 14 0 15 22 6z m586 -44 c0 -5 -2
-10 -4 -10 -3 0 -8 5 -11 10 -3 6 -1 10 4 10 6 0 11 -4 11 -10z m1755 -38 c-3
-3 -11 0 -18 7 -9 10 -8 11 6 5 10 -3 15 -9 12 -12z m-1788 -29 c-3 -10 -5 -4
-5 12 0 17 2 24 5 18 2 -7 2 -21 0 -30z m50 -75 c-3 -8 -6 -5 -6 6 -1 11 2 17
5 13 3 -3 4 -12 1 -19z m-1757 -23 c0 -14 -4 -25 -10 -25 -11 0 -14 33 -3 43
11 11 13 8 13 -18z m517 -97 c-3 -8 -6 -5 -6 6 -1 11 2 17 5 13 3 -3 4 -12 1
-19z m-113 -117 c3 -5 -1 -12 -10 -15 -23 -9 -54 -7 -54 3 0 18 54 28 64 12z
m1205 -31 c6 0 11 -9 11 -20 0 -13 -7 -20 -20 -20 -13 0 -18 5 -14 15 4 8 1
15 -5 15 -6 0 -11 10 -11 23 1 20 2 21 14 5 7 -10 18 -18 25 -18z m28 24 c-3
-3 -12 -4 -19 -1 -8 3 -5 6 6 6 11 1 17 -2 13 -5z m-1263 -93 c3 -4 3 -11 0
-14 -8 -8 -34 3 -34 14 0 11 27 12 34 0z m403 -273 c-3 -8 -6 -5 -6 6 -1 11 2
17 5 13 3 -3 4 -12 1 -19z m-362 -8 c-3 -5 -14 -10 -23 -10 -15 0 -15 2 -2 10
20 13 33 13 25 0z m35 -100 c0 -5 -2 -10 -4 -10 -3 0 -8 5 -11 10 -3 6 -1 10
4 10 6 0 11 -4 11 -10z m-670 -214 c0 -3 -7 -12 -16 -20 -23 -23 -40 -19 -19
4 16 18 35 26 35 16z m3010 -66 c0 -5 -5 -10 -11 -10 -5 0 -7 5 -4 10 3 6 8
10 11 10 2 0 4 -4 4 -10z m-3120 -23 c0 -8 -9 -22 -20 -32 -19 -17 -19 -17 -7
14 12 32 27 42 27 18z m1993 -53 c-3 -8 0 -14 6 -14 6 0 11 5 11 12 0 6 2 9 5
6 3 -3 1 -17 -4 -32 -11 -29 4 -37 27 -14 9 9 12 9 12 1 0 -7 8 -14 18 -17 9
-3 28 -16 42 -29 14 -13 51 -28 85 -36 33 -7 70 -17 82 -22 14 -5 34 -5 50 2
15 5 68 9 119 8 50 -1 96 1 102 5 6 3 17 3 25 0 8 -3 18 -1 21 5 4 6 13 8 21
4 9 -3 27 2 41 12 14 9 35 14 47 11 13 -3 25 1 33 12 11 14 16 15 33 5 29 -18
96 -16 111 2 7 8 18 15 26 15 7 0 17 6 21 13 13 20 51 37 68 31 9 -4 15 -1 15
9 0 14 20 27 41 27 5 0 9 -7 9 -15 0 -8 6 -15 13 -15 21 0 37 -46 37 -105 0
-48 -2 -55 -20 -55 -28 0 -25 -22 6 -45 21 -16 24 -24 19 -52 -3 -18 -2 -33 3
-33 4 0 21 -13 38 -29 16 -15 46 -34 67 -42 20 -7 44 -23 52 -35 17 -26 55
-22 55 6 0 13 11 19 40 24 29 5 43 13 50 29 l9 22 0 -22 c2 -58 -42 -134 -134
-231 -79 -83 -138 -149 -259 -292 -83 -98 -154 -173 -173 -183 -22 -12 -117
-103 -228 -217 -52 -54 -60 -60 -63 -41 -2 11 -8 21 -13 21 -5 0 -9 7 -9 15 0
8 -4 15 -10 15 -5 0 -10 9 -10 21 0 11 -11 37 -25 57 -14 20 -25 42 -25 49 0
7 -6 13 -13 13 -8 0 -18 10 -24 23 -6 12 -37 43 -69 67 -75 57 -89 75 -145
179 -25 47 -89 152 -142 233 -53 80 -97 148 -97 151 0 3 -21 42 -47 88 -53 95
-143 303 -142 328 1 9 4 6 9 -9 l8 -25 1 25 c2 33 16 54 30 46 6 -4 11 -2 11
3 0 21 26 11 43 -16 15 -24 17 -25 12 -5 -8 28 10 29 27 2 20 -32 28 -23 11
11 -12 24 -13 33 -3 39 19 11 49 0 43 -16z m-1220 1 c-3 -9 -8 -14 -10 -11 -3
3 -2 9 2 15 9 16 15 13 8 -4z m1032 -15 c-3 -5 -11 -10 -16 -10 -6 0 -7 5 -4
10 3 6 11 10 16 10 6 0 7 -4 4 -10z m-1885 -25 c-7 -9 -15 -13 -17 -11 -7 7 7
26 19 26 6 0 6 -6 -2 -15z m-25 -25 c3 -5 1 -10 -4 -10 -6 0 -11 5 -11 10 0 6
2 10 4 10 3 0 8 -4 11 -10z m152 -22 c-3 -8 -6 -5 -6 6 -1 11 2 17 5 13 3 -3
4 -12 1 -19z m-92 2 c3 -5 1 -10 -4 -10 -6 0 -11 5 -11 10 0 6 2 10 4 10 3 0
8 -4 11 -10z m837 -22 c-6 -6 -15 -8 -19 -4 -4 4 -1 11 7 16 19 12 27 3 12
-12z m-92 2 c0 -5 -5 -10 -11 -10 -5 0 -7 5 -4 10 3 6 8 10 11 10 2 0 4 -4 4
-10z m53 -27 c-7 -2 -19 -2 -25 0 -7 3 -2 5 12 5 14 0 19 -2 13 -5z m177 -8
c0 -8 -7 -15 -15 -15 -13 0 -14 3 -3 15 16 18 18 18 18 0z m-50 -37 c0 -4 -5
-10 -12 -14 -6 -4 -8 -3 -4 4 3 6 -3 13 -14 17 -11 3 -20 10 -20 15 0 4 11 3
25 -3 14 -7 25 -15 25 -19z m-110 12 c0 -5 -4 -10 -9 -10 -6 0 -13 5 -16 10
-3 6 1 10 9 10 9 0 16 -4 16 -10z m40 1 c0 -5 9 -11 20 -14 11 -3 20 -11 20
-17 0 -9 -7 -7 -24 4 -18 11 -26 12 -29 3 -3 -6 -4 -2 -4 11 1 20 17 33 17 13z
m-925 -31 c3 -5 1 -10 -4 -10 -6 0 -11 5 -11 10 0 6 2 10 4 10 3 0 8 -4 11
-10z m1039 -5 c-7 -16 -24 -21 -24 -6 0 8 7 13 27 20 1 1 0 -6 -3 -14z m-49
-15 c3 -5 1 -10 -4 -10 -6 0 -11 5 -11 10 0 6 2 10 4 10 3 0 8 -4 11 -10z
m-1228 -52 c-3 -8 -6 -5 -6 6 -1 11 2 17 5 13 3 -3 4 -12 1 -19z m1145 0 c-9
-9 -15 -9 -24 0 -9 9 -7 12 12 12 19 0 21 -3 12 -12z m148 -18 c0 -5 -2 -10
-4 -10 -3 0 -8 5 -11 10 -3 6 -1 10 4 10 6 0 11 -4 11 -10z m3330 -74 c0 -3
-4 -8 -10 -11 -5 -3 -10 -1 -10 4 0 6 5 11 10 11 6 0 10 -2 10 -4z m-4330 -16
c0 -5 -4 -10 -10 -10 -5 0 -10 5 -10 10 0 6 5 10 10 10 6 0 10 -4 10 -10z
m107 -42 c-3 -8 -6 -5 -6 6 -1 11 2 17 5 13 3 -3 4 -12 1 -19z m4313 -89 c0
-10 -27 -19 -34 -12 -11 12 -6 19 14 19 11 0 20 -3 20 -7z m50 -5 c0 -8 -4
-12 -10 -9 -5 3 -10 10 -10 16 0 5 5 9 10 9 6 0 10 -7 10 -16z m173 -21 c-7
-2 -19 -2 -25 0 -7 3 -2 5 12 5 14 0 19 -2 13 -5z m34 -29 c-3 -3 -12 -4 -19
-1 -8 3 -5 6 6 6 11 1 17 -2 13 -5z m-4914 -179 c-3 -9 -8 -14 -10 -11 -3 3
-2 9 2 15 9 16 15 13 8 -4z m242 5 c3 -5 1 -10 -4 -10 -6 0 -11 5 -11 10 0 6
2 10 4 10 3 0 8 -4 11 -10z m530 -8 c-3 -3 -11 0 -18 7 -9 10 -8 11 6 5 10 -3
15 -9 12 -12z m-1005 -1 c0 -5 -7 -12 -16 -15 -14 -5 -15 -4 -4 9 14 17 20 19
20 6z m37 -93 c-3 -8 -6 -5 -6 6 -1 11 2 17 5 13 3 -3 4 -12 1 -19z m-122 -78
c-3 -5 -12 -10 -18 -10 -7 0 -6 4 3 10 19 12 23 12 15 0z m-35 -80 c0 -5 -2
-10 -4 -10 -3 0 -8 5 -11 10 -3 6 -1 10 4 10 6 0 11 -4 11 -10z m1120 -36 c0
-8 -5 -12 -10 -9 -6 4 -8 11 -5 16 9 14 15 11 15 -7z m-1133 -26 c-3 -8 -6 -5
-6 6 -1 11 2 17 5 13 3 -3 4 -12 1 -19z m553 -38 c0 -5 -4 -10 -10 -10 -5 0
-10 5 -10 10 0 6 5 10 10 10 6 0 10 -4 10 -10z m520 -80 c0 -5 -5 -10 -11 -10
-5 0 -7 5 -4 10 3 6 8 10 11 10 2 0 4 -4 4 -10z m4600 0 c0 -5 -2 -10 -4 -10
-3 0 -8 5 -11 10 -3 6 -1 10 4 10 6 0 11 -4 11 -10z m-5570 -34 c0 -3 -4 -8
-10 -11 -5 -3 -10 -1 -10 4 0 6 5 11 10 11 6 0 10 -2 10 -4z m410 -11 c0 -8
-2 -15 -4 -15 -2 0 -6 7 -10 15 -3 8 -1 15 4 15 6 0 10 -7 10 -15z m1640 -35
c0 -5 -2 -10 -4 -10 -3 0 -8 5 -11 10 -3 6 -1 10 4 10 6 0 11 -4 11 -10z
m-1644 -13 c4 -4 -2 -7 -14 -7 -12 0 -22 4 -22 9 0 10 26 9 36 -2z m5294 9 c0
-3 -4 -8 -10 -11 -5 -3 -10 -1 -10 4 0 6 5 11 10 11 6 0 10 -2 10 -4z m-5745
-36 c8 -13 -5 -13 -25 0 -13 8 -13 10 2 10 9 0 20 -4 23 -10z m-335 -30 c0 -5
-5 -10 -11 -10 -5 0 -7 5 -4 10 3 6 8 10 11 10 2 0 4 -4 4 -10z m1307 -27 c-3
-10 -5 -4 -5 12 0 17 2 24 5 18 2 -7 2 -21 0 -30z m1080 -35 c-3 -8 -6 -5 -6
6 -1 11 2 17 5 13 3 -3 4 -12 1 -19z m73 18 c0 -3 -4 -8 -10 -11 -5 -3 -10 -1
-10 4 0 6 5 11 10 11 6 0 10 -2 10 -4z m-2206 -21 c-4 -8 -8 -15 -10 -15 -2 0
-4 7 -4 15 0 8 4 15 10 15 5 0 7 -7 4 -15z m-344 -1 c0 -15 -22 -44 -31 -39
-11 7 7 45 21 45 6 0 10 -3 10 -6z m-58 -46 c-7 -7 -12 -8 -12 -2 0 14 12 26
19 19 2 -3 -1 -11 -7 -17z m1008 -58 c0 -5 -2 -10 -4 -10 -3 0 -8 5 -11 10 -3
6 -1 10 4 10 6 0 11 -4 11 -10z m-1025 -90 c3 -5 1 -10 -4 -10 -6 0 -11 5 -11
10 0 6 2 10 4 10 3 0 8 -4 11 -10z m2222 -22 c-3 -7 -5 -2 -5 12 0 14 2 19 5
13 2 -7 2 -19 0 -25z m-2047 -150 c0 -6 -6 -5 -15 2 -8 7 -15 14 -15 16 0 2 7
1 15 -2 8 -4 15 -11 15 -16z m2145 -136 c-3 -3 -11 0 -18 7 -9 10 -8 11 6 5
10 -3 15 -9 12 -12z m-2886 -16 c-2 -2 -18 -7 -34 -10 l-30 -6 30 14 c26 12
46 14 34 2z m2592 -15 c6 -14 5 -20 -1 -16 -6 3 -10 12 -10 20 0 7 -5 16 -10
18 -6 3 -5 4 1 3 7 -1 16 -12 20 -25z m39 19 c0 -5 -8 -10 -17 -10 -15 0 -16
2 -3 10 19 12 20 12 20 0z m-2243 -62 c-3 -7 -5 -2 -5 12 0 14 2 19 5 13 2 -7
2 -19 0 -25z m-530 -40 c-3 -7 -5 -2 -5 12 0 14 2 19 5 13 2 -7 2 -19 0 -25z
m222 18 c9 -11 8 -15 -5 -20 -23 -9 -24 -8 -24 14 0 23 13 26 29 6z m2503 -8
c-9 -9 -15 -9 -24 0 -9 9 -7 12 12 12 19 0 21 -3 12 -12z m518 -12 c0 -3 -4
-8 -10 -11 -5 -3 -10 -1 -10 4 0 6 5 11 10 11 6 0 10 -2 10 -4z m-580 -34 c0
-15 -2 -15 -10 -2 -13 20 -13 33 0 25 6 -3 10 -14 10 -23z m-2230 -8 c0 -8 -5
-12 -10 -9 -6 4 -8 11 -5 16 9 14 15 11 15 -7z m50 6 c0 -5 -5 -10 -11 -10 -5
0 -7 5 -4 10 3 6 8 10 11 10 2 0 4 -4 4 -10z m28 -71 c-6 -16 -12 -28 -14 -26
-5 5 13 57 20 57 3 0 0 -14 -6 -31z m-281 14 c-13 -3 -16 -11 -12 -26 5 -17 4
-19 -4 -7 -17 24 -13 40 12 39 17 -1 18 -2 4 -6z m2737 -34 c-6 -11 -24 -2
-24 11 0 5 7 7 15 4 8 -4 12 -10 9 -15z m-1199 1 c3 -5 1 -10 -4 -10 -6 0 -11
5 -11 10 0 6 2 10 4 10 3 0 8 -4 11 -10z m-1215 -10 c0 -5 -2 -10 -4 -10 -3 0
-8 5 -11 10 -3 6 -1 10 4 10 6 0 11 -4 11 -10z m2235 0 c3 -5 1 -10 -4 -10 -6
0 -11 5 -11 10 0 6 2 10 4 10 3 0 8 -4 11 -10z m-478 -22 c-3 -8 -6 -5 -6 6
-1 11 2 17 5 13 3 -3 4 -12 1 -19z m-1834 -13 c-3 -9 -8 -14 -10 -11 -3 3 -2
9 2 15 9 16 15 13 8 -4z m2257 -6 c0 -5 -6 -9 -14 -9 -8 0 -17 -6 -19 -12 -3
-7 -6 -1 -6 14 -1 21 3 25 19 21 11 -3 20 -9 20 -14z m160 0 c0 -11 -3 -11
-24 -3 -23 9 -20 23 4 17 11 -3 20 -9 20 -14z m34 6 c-4 -8 -11 -15 -16 -15
-6 0 -5 6 2 15 7 8 14 15 16 15 2 0 1 -7 -2 -15z m-284 -25 c0 -5 -7 -7 -15
-4 -8 4 -15 8 -15 10 0 2 7 4 15 4 8 0 15 -4 15 -10z m380 0 c0 -5 -4 -10 -10
-10 -5 0 -10 5 -10 10 0 6 5 10 10 10 6 0 10 -4 10 -10z m40 -10 c0 -5 -7 -10
-15 -10 -8 0 -15 5 -15 10 0 6 7 10 15 10 8 0 15 -4 15 -10z m-305 -21 c4 -11
4 -23 0 -27 -7 -7 -25 17 -25 36 0 20 18 14 25 -9z m170 11 c3 -5 2 -10 -4
-10 -5 0 -13 5 -16 10 -3 6 -2 10 4 10 5 0 13 -4 16 -10z m-75 -42 c0 -13 -23
-5 -28 10 -2 7 2 10 12 6 9 -3 16 -11 16 -16z m162 -44 c-6 -12 -9 -7 -9 16 0
23 3 28 9 16 5 -9 5 -23 0 -32z m-344 -3 c-1 -14 2 -36 6 -48 7 -22 -8 -41
-19 -23 -4 6 -10 8 -15 5 -4 -2 -7 10 -5 27 1 18 7 34 14 36 7 2 8 9 1 23 -8
15 -7 17 5 13 9 -4 14 -17 13 -33z m-208 9 c0 -5 -5 -10 -11 -10 -5 0 -7 5 -4
10 3 6 8 10 11 10 2 0 4 -4 4 -10z m-670 -21 c0 -5 -4 -9 -10 -9 -5 0 -10 7
-10 16 0 8 5 12 10 9 6 -3 10 -10 10 -16z m830 -24 c0 -13 -4 -27 -10 -30 -6
-4 -10 8 -10 30 0 22 4 34 10 30 6 -3 10 -17 10 -30z m199 9 c19 -42 -8 -70
-62 -66 -14 2 -17 -3 -12 -20 5 -18 4 -20 -4 -8 -6 8 -11 23 -11 33 0 15 6 18
33 15 28 -3 32 0 35 25 2 19 -1 27 -12 27 -23 0 -20 15 3 17 11 1 23 -9 30
-23z m50 -28 c-9 -8 -10 -7 -5 7 3 10 7 26 7 35 1 9 4 6 6 -7 3 -13 -1 -28 -8
-35z m138 12 c-3 -8 -6 -5 -6 6 -1 11 2 17 5 13 3 -3 4 -12 1 -19z m-257 -4
c0 -8 -4 -12 -10 -9 -5 3 -10 10 -10 16 0 5 5 9 10 9 6 0 10 -7 10 -16z
m-2773 -71 c-2 -16 -4 -5 -4 22 0 28 2 40 4 28 2 -13 2 -35 0 -50z m2373 21
c0 -8 -4 -12 -10 -9 -5 3 -10 10 -10 16 0 5 5 9 10 9 6 0 10 -7 10 -16z m259
-11 c0 -25 -1 -26 -9 -8 -12 27 -12 35 0 35 6 0 10 -12 9 -27z m-109 -7 c-7
-7 -13 -7 -20 0 -6 6 -3 10 10 10 13 0 16 -4 10 -10z"/>
<path d="M2908 3808 c9 -9 15 -9 24 0 9 9 7 12 -12 12 -19 0 -21 -3 -12 -12z"/>
<path d="M4085 7030 c1 -11 7 -26 13 -32 7 -7 12 -18 12 -25 0 -8 7 -25 17
-39 14 -21 15 -35 6 -90 -5 -36 -6 -67 -1 -70 9 -6 48 54 48 73 0 7 9 17 20
23 28 15 25 30 -5 30 -23 0 -29 8 -26 37 1 6 -9 13 -21 15 -17 2 -24 11 -26
31 -2 15 -8 27 -13 27 -5 0 -9 9 -9 20 0 11 -4 20 -8 20 -5 0 -8 -9 -7 -20z"/>
<path d="M4468 7043 c6 -2 18 -2 25 0 6 3 1 5 -13 5 -14 0 -19 -2 -12 -5z"/>
<path d="M5574 7022 c8 -15 23 -36 35 -46 24 -21 27 -46 9 -64 -9 -9 -9 -15 0
-24 13 -13 17 -70 5 -81 -12 -13 -33 16 -34 47 0 30 0 30 -10 7 -8 -20 -6 -31
9 -50 10 -15 27 -45 37 -68 12 -26 25 -43 36 -43 20 0 29 -47 30 -172 1 -51 6
-88 12 -88 6 0 5 -5 -1 -13 -6 -7 -11 -34 -10 -60 0 -41 3 -46 16 -35 13 11
14 7 7 -31 -5 -33 -4 -42 5 -36 8 5 11 23 7 51 -2 24 -2 46 1 49 3 3 7 67 9
143 4 201 11 260 34 283 14 14 15 19 5 19 -16 0 -25 19 -19 38 7 19 31 14 45
-8 31 -49 148 -3 135 53 -14 55 -19 127 -9 127 5 0 12 7 16 15 5 13 -20 15
-190 15 l-195 0 15 -28z"/>
<path d="M7020 7043 c0 -6 -3 -18 -6 -27 -4 -11 0 -14 15 -13 12 1 21 4 21 7
0 12 -29 45 -30 33z"/>
<path d="M775 7030 c-3 -5 -1 -10 4 -10 6 0 11 5 11 10 0 6 -2 10 -4 10 -3 0
-8 -4 -11 -10z"/>
<path d="M3276 7025 c4 -8 8 -15 10 -15 2 0 4 7 4 15 0 8 -4 15 -10 15 -5 0
-7 -7 -4 -15z"/>
<path d="M4707 7010 c-6 -31 -2 -36 17 -21 23 19 27 50 6 48 -11 -1 -20 -11
-23 -27z"/>
<path d="M2050 7020 c8 -5 22 -10 30 -10 13 0 13 1 0 10 -8 5 -22 10 -30 10
-13 0 -13 -1 0 -10z"/>
<path d="M2206 7016 c-20 -9 -30 -22 -32 -40 -1 -14 -1 -26 2 -26 2 0 23 11
45 26 56 35 45 66 -15 40z"/>
<path d="M540 7005 c-10 -12 -7 -15 15 -21 33 -8 42 0 22 21 -19 19 -22 19
-37 0z"/>
<path d="M837 7014 c-4 -4 -7 -17 -7 -28 1 -19 1 -20 11 -3 11 19 8 43 -4 31z"/>
<path d="M413 6995 c-7 -8 -13 -22 -13 -31 0 -13 5 -11 20 9 11 14 20 28 20
31 0 10 -15 6 -27 -9z"/>
<path d="M3490 7003 c1 -13 29 -59 30 -48 0 21 -13 55 -21 55 -5 0 -9 -3 -9
-7z"/>
<path d="M1784 6971 c-29 -26 -52 -83 -36 -89 7 -2 12 -13 12 -24 0 -11 5 -18
12 -16 8 3 13 24 14 52 1 53 8 64 27 48 20 -17 27 -4 15 24 -13 29 -18 29 -44
5z"/>
<path d="M2264 6968 c3 -13 6 -26 6 -30 0 -5 7 -8 15 -8 10 0 15 10 15 30 0
24 -4 30 -21 30 -17 0 -20 -4 -15 -22z"/>
<path d="M802 6959 c-11 -16 -16 -18 -28 -9 -10 9 -14 9 -14 1 0 -15 -27 -14
-33 2 -4 9 -6 9 -6 0 -1 -6 3 -14 9 -18 5 -3 7 -12 3 -20 -9 -25 39 -17 70 10
19 17 26 29 20 40 -7 12 -11 11 -21 -6z"/>
<path d="M375 6930 c-3 -5 -15 -10 -25 -10 -19 0 -36 -17 -27 -27 7 -6 67 29
67 39 0 11 -8 10 -15 -2z"/>
<path d="M5058 6933 c7 -3 16 -2 19 1 4 3 -2 6 -13 5 -11 0 -14 -3 -6 -6z"/>
<path d="M3274 6916 c-4 -10 -2 -21 5 -25 7 -4 11 -12 10 -17 -1 -5 0 -18 1
-29 1 -11 6 -2 10 20 6 29 4 44 -6 54 -11 13 -14 12 -20 -3z"/>
<path d="M5550 6921 c0 -5 7 -14 15 -21 13 -10 15 -9 15 9 0 12 -6 21 -15 21
-8 0 -15 -4 -15 -9z"/>
<path d="M462 6900 c-24 -26 -25 -29 -13 -48 10 -17 44 31 39 56 -3 14 -7 13
-26 -8z"/>
<path d="M360 6875 c0 -8 5 -15 10 -15 6 0 10 7 10 15 0 8 -4 15 -10 15 -5 0
-10 -7 -10 -15z"/>
<path d="M837 6864 c-30 -30 -34 -51 -14 -78 9 -12 20 -16 34 -12 16 5 20 15
20 49 1 64 -8 73 -40 41z"/>
<path d="M300 6869 c0 -6 -7 -8 -16 -5 -21 8 -8 -11 17 -24 16 -9 19 -7 19 15
0 14 -4 25 -10 25 -5 0 -10 -5 -10 -11z"/>
<path d="M4918 6863 c7 -3 16 -2 19 1 4 3 -2 6 -13 5 -11 0 -14 -3 -6 -6z"/>
<path d="M1835 6850 c-3 -5 -1 -10 4 -10 6 0 11 5 11 10 0 6 -2 10 -4 10 -3 0
-8 -4 -11 -10z"/>
<path d="M2272 6849 c2 -6 8 -10 13 -10 5 0 11 4 13 10 2 6 -4 11 -13 11 -9 0
-15 -5 -13 -11z"/>
<path d="M6988 6844 c24 -17 39 -14 27 5 -3 6 -16 11 -28 11 l-21 0 22 -16z"/>
<path d="M3439 6833 c-13 -17 -13 -17 6 -3 11 8 22 16 24 17 2 2 0 3 -6 3 -6
0 -17 -8 -24 -17z"/>
<path d="M4345 6830 c-3 -5 -1 -10 4 -10 6 0 11 5 11 10 0 6 -2 10 -4 10 -3 0
-8 -4 -11 -10z"/>
<path d="M450 6819 c0 -5 5 -7 10 -4 6 3 10 8 10 11 0 2 -4 4 -10 4 -5 0 -10
-5 -10 -11z"/>
<path d="M481 6814 c0 -11 3 -14 6 -6 3 7 2 16 -1 19 -3 4 -6 -2 -5 -13z"/>
<path d="M1372 6812 c5 -16 2 -19 -11 -14 -9 3 -19 10 -22 15 -3 5 -9 2 -12
-7 -8 -20 26 -39 54 -31 23 8 23 45 0 53 -10 3 -12 -1 -9 -16z"/>
<path d="M7036 6822 c-2 -4 -1 -14 5 -22 7 -12 9 -10 9 8 0 23 -5 28 -14 14z"/>
<path d="M3296 6782 c9 -36 11 -37 16 -8 3 16 0 27 -9 30 -10 4 -12 -1 -7 -22z"/>
<path d="M1756 6781 c-4 -7 -5 -15 -2 -18 9 -9 19 4 14 18 -4 11 -6 11 -12 0z"/>
<path d="M1904 6776 c-18 -8 -46 -13 -64 -12 -35 2 -92 -42 -104 -82 -4 -12
-12 -22 -17 -22 -10 0 -12 -33 -3 -43 9 -9 34 19 34 37 0 8 5 18 10 21 6 3 10
15 10 26 0 24 27 36 43 20 9 -9 8 -17 -1 -32 -15 -23 -11 -32 16 -34 9 0 23
-5 30 -9 16 -9 17 -8 26 21 6 17 4 22 -6 18 -19 -7 -52 30 -45 50 4 10 20 15
44 15 22 0 48 9 63 20 30 23 11 26 -36 6z"/>
<path d="M2036 6764 c-5 -14 -4 -15 9 -4 17 14 19 20 6 20 -5 0 -12 -7 -15
-16z"/>
<path d="M950 6731 c-12 -23 -13 -31 -2 -31 4 0 12 11 19 25 13 29 -1 34 -17
6z"/>
<path d="M2170 6739 c0 -5 5 -7 10 -4 6 3 10 8 10 11 0 2 -4 4 -10 4 -5 0 -10
-5 -10 -11z"/>
<path d="M830 6720 c0 -17 3 -19 19 -8 21 13 19 28 -5 28 -8 0 -14 -9 -14 -20z"/>
<path d="M1994 6729 c-12 -15 -27 -69 -19 -69 2 0 12 14 20 31 18 33 16 60 -1
38z"/>
<path d="M391 6712 c-8 -14 -13 -15 -30 -4 -36 21 -51 15 -51 -20 0 -21 3 -28
8 -20 5 7 16 10 24 7 9 -4 19 -2 23 4 11 19 45 12 54 -11 5 -14 10 -18 15 -10
4 7 12 10 17 6 7 -4 9 5 7 22 -4 35 -52 53 -67 26z"/>
<path d="M741 6714 c0 -11 3 -14 6 -6 3 7 2 16 -1 19 -3 4 -6 -2 -5 -13z"/>
<path d="M1035 6690 c5 -16 2 -20 -17 -18 -17 2 -24 -3 -26 -19 -4 -25 7 -30
25 -12 7 7 13 7 17 1 3 -5 -3 -17 -14 -27 -21 -19 -27 -45 -11 -45 20 0 41 33
41 65 0 19 5 37 10 40 8 5 7 11 -1 21 -17 21 -31 17 -24 -6z"/>
<path d="M2123 6694 c20 -7 54 -29 75 -48 33 -31 36 -38 25 -56 -17 -26 -16
-31 1 -24 8 3 26 -2 41 -12 l26 -17 -12 27 c-10 20 -10 29 -1 38 21 21 13 31
-19 24 -25 -5 -30 -3 -27 12 4 24 -10 42 -33 42 -11 0 -22 6 -24 13 -3 6 -24
13 -48 13 l-42 2 38 -14z"/>
<path d="M910 6680 c0 -19 3 -21 12 -12 9 9 9 15 0 24 -9 9 -12 7 -12 -12z"/>
<path d="M1110 6686 c0 -20 17 -29 23 -14 2 7 8 1 12 -14 4 -16 11 -28 15 -28
16 0 31 30 25 50 -5 15 -15 20 -41 20 -23 0 -34 -5 -34 -14z"/>
<path d="M751 6633 c-1 -36 -4 -43 -21 -43 -23 0 -28 -29 -5 -31 51 -4 50 -5
48 32 -1 19 -7 46 -12 60 -9 21 -10 19 -10 -18z"/>
<path d="M665 6644 c-12 -13 -19 -14 -30 -4 -16 13 -45 7 -45 -10 0 -5 9 -10
20 -10 19 0 24 -10 21 -37 -1 -7 3 -13 9 -13 5 0 10 -8 10 -18 0 -9 9 -23 20
-30 18 -11 20 -10 20 11 0 13 -9 32 -20 42 l-20 18 21 23 c12 13 24 23 28 22
21 -2 41 3 41 12 0 16 -57 11 -75 -6z"/>
<path d="M6560 6645 c0 -7 -7 -18 -16 -23 -11 -6 -13 -12 -6 -16 12 -7 52 27
52 44 0 6 -7 10 -15 10 -8 0 -15 -7 -15 -15z"/>
<path d="M6810 6630 l-35 -29 40 -1 c22 -1 49 -5 59 -9 18 -7 18 -8 2 -14 -25
-10 -9 -29 17 -21 30 9 29 7 11 42 -8 18 -22 32 -29 32 -8 0 -18 7 -22 15 -7
12 -15 10 -43 -15z"/>
<path d="M6980 6598 c-19 -21 -36 -42 -38 -47 -4 -12 26 -22 33 -11 4 6 10 10
14 10 11 0 1 -51 -13 -69 -6 -8 -6 -12 -1 -9 6 2 25 10 43 17 32 13 32 13 32
83 0 59 -2 69 -14 59 -8 -7 -16 -8 -18 -4 -1 5 -19 -9 -38 -29z"/>
<path d="M1620 6604 c0 -8 5 -12 10 -9 6 3 10 10 10 16 0 5 -4 9 -10 9 -5 0
-10 -7 -10 -16z"/>
<path d="M1881 6603 c0 -10 3 -13 5 -6 3 7 12 9 21 6 11 -4 14 -2 9 5 -11 18
-36 14 -35 -5z"/>
<path d="M496 6571 c-4 -7 -5 -15 -2 -18 9 -9 19 4 14 18 -4 11 -6 11 -12 0z"/>
<path d="M2020 6556 c-5 -13 -15 -26 -22 -29 -16 -5 -64 18 -71 35 -3 7 -6 1
-6 -13 -1 -23 4 -28 33 -33 18 -4 37 -15 42 -25 7 -15 14 -17 32 -10 12 4 22
17 22 27 0 10 6 24 13 31 10 11 9 12 -3 6 -12 -7 -13 -6 -3 7 7 8 10 18 6 21
-14 14 -34 6 -43 -17z"/>
<path d="M572 6563 c-6 -2 -9 -9 -6 -14 3 -6 1 -15 -4 -22 -8 -9 -4 -15 14
-24 20 -9 26 -9 31 3 3 8 0 20 -6 27 -8 10 -7 17 1 25 9 9 9 12 -2 11 -8 0
-21 -3 -28 -6z"/>
<path d="M223 6518 c26 -24 47 -51 47 -61 0 -9 5 -17 10 -17 15 0 12 15 -10
43 -11 14 -20 37 -20 52 0 24 -2 26 -16 14 -13 -10 -20 -10 -37 0 -12 7 -1 -7
26 -31z"/>
<path d="M1680 6522 c0 -30 1 -32 16 -18 8 9 20 16 25 16 5 0 9 4 9 10 0 5 -7
7 -16 3 -9 -3 -20 0 -25 8 -6 10 -9 4 -9 -19z"/>
<path d="M95 6530 c3 -5 16 -10 28 -10 18 0 19 2 7 10 -20 13 -43 13 -35 0z"/>
<path d="M951 6514 c0 -11 3 -14 6 -6 3 7 2 16 -1 19 -3 4 -6 -2 -5 -13z"/>
<path d="M1255 6510 c-4 -6 5 -10 19 -10 21 0 26 -5 27 -27 0 -16 3 -22 6 -15
9 24 -7 62 -27 62 -10 0 -22 -4 -25 -10z"/>
<path d="M2110 6494 c0 -8 5 -12 10 -9 6 4 8 11 5 16 -9 14 -15 11 -15 -7z"/>
<path d="M1015 6490 c11 -5 27 -9 35 -9 9 0 8 4 -5 9 -11 5 -27 9 -35 9 -9 0
-8 -4 5 -9z"/>
<path d="M2305 6491 c-3 -5 -1 -12 5 -16 5 -3 10 1 10 9 0 18 -6 21 -15 7z"/>
<path d="M750 6481 c0 -6 5 -13 10 -16 6 -3 10 1 10 9 0 9 -4 16 -10 16 -5 0
-10 -4 -10 -9z"/>
<path d="M1745 6480 c-4 -7 -18 -10 -31 -7 -28 5 -31 -13 -12 -74 12 -42 22
-49 32 -23 4 11 -1 22 -14 31 -11 8 -20 23 -20 34 0 19 5 20 50 15 40 -4 50
-2 50 9 0 8 -4 15 -9 15 -5 0 -16 3 -24 6 -8 3 -18 0 -22 -6z"/>
<path d="M6897 6484 c-11 -11 3 -24 18 -18 8 4 12 10 9 15 -6 11 -18 12 -27 3z"/>
<path d="M45 6449 c6 -31 4 -36 -19 -47 -32 -14 -34 -32 -4 -32 12 0 18 3 15
7 -11 10 13 33 34 33 11 0 19 7 19 15 0 8 7 15 16 15 8 0 25 5 37 12 l22 12
-25 6 c-14 4 -35 2 -47 -3 -16 -7 -27 -6 -39 3 -14 12 -15 10 -9 -21z"/>
<path d="M335 6460 c10 -11 20 -18 23 -15 7 6 -18 35 -31 35 -5 0 -2 -9 8 -20z"/>
<path d="M1244 6461 c4 -6 3 -11 -2 -11 -6 0 -12 -7 -16 -15 -8 -22 4 -75 18
-75 10 0 51 79 44 85 -15 12 -49 25 -44 16z"/>
<path d="M2262 6440 c-15 -20 -31 -30 -49 -30 -38 0 -25 -6 28 -13 l47 -6 4
39 c2 22 1 40 -2 40 -4 0 -16 -13 -28 -30z"/>
<path d="M943 6445 c-3 -9 -3 -18 -1 -21 3 -3 8 4 11 16 6 23 -1 27 -10 5z"/>
<path d="M565 6440 c-13 -6 -15 -9 -5 -9 8 0 22 4 30 9 18 12 2 12 -25 0z"/>
<path d="M630 6441 c0 -5 7 -15 17 -22 15 -13 15 -12 4 9 -12 23 -21 28 -21
13z"/>
<path d="M700 6441 c0 -5 -3 -16 -6 -25 -4 -11 -1 -16 11 -16 10 0 15 5 12 14
-3 7 0 19 6 25 8 8 7 11 -6 11 -9 0 -17 -4 -17 -9z"/>
<path d="M1050 6439 c0 -3 -10 -11 -22 -18 -20 -9 -20 -10 -3 -7 73 16 85 17
85 7 0 -6 -7 -11 -15 -11 -8 0 -19 -8 -24 -19 -12 -22 -90 -46 -120 -36 -13 4
-21 2 -21 -5 0 -7 -7 -28 -16 -47 -13 -25 -14 -37 -5 -46 8 -8 11 -5 11 15 0
27 20 41 44 32 8 -3 17 -1 21 5 10 16 45 13 45 -4 0 -25 32 -23 108 7 50 20
68 38 37 38 -17 0 -21 35 -5 45 17 10 11 21 -17 35 -29 13 -103 20 -103 9z"/>
<path d="M6800 6440 c0 -5 7 -10 15 -10 24 0 36 -34 24 -67 -6 -19 -24 -37
-52 -51 -23 -11 -34 -21 -25 -21 10 -1 20 -12 24 -26 8 -31 44 -34 61 -5 15
24 79 37 104 22 22 -14 43 -7 76 26 31 31 24 49 -24 57 -21 3 -47 11 -58 17
-129 72 -145 78 -145 58z m120 -95 c0 -19 -38 -26 -45 -8 -8 23 14 46 31 32 8
-6 14 -17 14 -24z m80 -29 c0 -18 -20 -25 -45 -16 -19 7 -19 7 0 18 27 16 45
15 45 -2z"/>
<path d="M177 6402 c-9 -18 -17 -39 -17 -47 0 -8 -8 -18 -17 -24 -15 -8 -16
-12 -5 -22 10 -11 12 -10 12 3 0 9 9 20 20 23 11 4 28 19 37 33 9 15 25 36 35
48 18 20 18 21 -15 20 -27 -1 -36 -7 -50 -34z"/>
<path d="M1630 6428 c0 -10 -8 -23 -19 -29 -11 -7 -16 -20 -14 -30 5 -17 7
-17 34 -3 33 17 34 20 14 54 -11 19 -14 21 -15 8z"/>
<path d="M2011 6433 c0 -7 -12 -13 -26 -13 -28 0 -32 -20 -15 -64 11 -31 35
-35 27 -6 -3 11 1 27 10 35 8 8 12 25 10 37 -2 13 -5 17 -6 11z"/>
<path d="M290 6419 c0 -5 5 -7 10 -4 6 3 10 8 10 11 0 2 -4 4 -10 4 -5 0 -10
-5 -10 -11z"/>
<path d="M820 6400 c0 -11 61 -52 68 -46 5 6 -47 56 -58 56 -6 0 -10 -5 -10
-10z"/>
<path d="M1315 6400 c-3 -5 1 -10 9 -10 10 0 13 -8 11 -30 -2 -16 0 -30 5 -30
6 0 10 11 10 25 0 14 5 25 10 25 6 0 10 5 10 11 0 5 -4 8 -9 4 -5 -3 -12 -1
-16 5 -8 13 -22 13 -30 0z"/>
<path d="M926 6385 c-3 -8 -1 -15 4 -15 6 0 10 7 10 15 0 8 -2 15 -4 15 -2 0
-6 -7 -10 -15z"/>
<path d="M1846 6390 c5 -5 25 -12 44 -15 l35 -6 -34 15 c-38 18 -60 21 -45 6z"/>
<path d="M736 6380 c11 -10 82 -25 72 -15 -3 4 -23 11 -43 15 -21 5 -34 5 -29
0z"/>
<path d="M256 6355 c4 -8 8 -15 10 -15 2 0 4 7 4 15 0 8 -4 15 -10 15 -5 0 -7
-7 -4 -15z"/>
<path d="M569 6352 c13 -25 -2 -46 -28 -39 -15 3 -21 0 -21 -11 0 -8 3 -12 7
-9 3 4 13 1 21 -6 12 -10 16 -9 20 2 3 8 15 25 27 37 l22 22 -24 11 c-32 15
-35 14 -24 -7z"/>
<path d="M5 6295 c9 -41 24 -55 36 -32 13 22 37 22 61 0 24 -22 22 -4 -3 26
-15 18 -23 21 -31 13 -17 -17 -45 -15 -58 6 -9 14 -10 11 -5 -13z"/>
<path d="M318 6301 c-7 -10 -28 -26 -46 -35 -18 -9 -30 -21 -27 -25 3 -5 -2
-11 -9 -14 -8 -3 -17 -1 -19 6 -3 8 -13 4 -29 -11 l-25 -23 -6 28 c-3 15 0 34
5 41 6 7 8 16 4 20 -4 4 -14 -2 -21 -12 -11 -14 -11 -24 -4 -38 19 -35 -4 -46
-76 -40 -61 4 -65 4 -65 -17 0 -19 5 -21 55 -21 52 0 61 -5 56 -32 -2 -11 6
-10 29 5 17 10 22 9 30 -3 5 -8 12 -11 16 -7 4 3 1 13 -6 22 -19 23 -5 47 27
43 25 -3 28 -7 27 -35 -1 -18 2 -33 7 -33 5 0 9 8 9 19 0 28 26 47 45 31 17
-14 20 -40 5 -40 -5 0 -10 -18 -10 -40 0 -36 3 -40 25 -40 16 0 25 -6 25 -16
0 -8 5 -12 10 -9 7 4 7 13 1 24 -7 13 -6 24 5 39 20 29 30 28 38 -3 4 -14 13
-25 21 -25 8 0 18 0 23 0 4 0 8 8 8 18 1 9 2 22 3 29 1 7 8 10 16 7 11 -5 15
1 15 20 0 18 5 26 18 26 25 -1 52 -24 53 -46 1 -14 3 -12 8 6 6 21 13 25 44
25 45 0 49 13 7 22 -16 3 -30 11 -30 17 0 6 -4 5 -9 -3 -8 -12 -14 -12 -40 -1
-33 13 -39 28 -19 48 9 9 9 12 0 12 -7 0 -15 -6 -17 -12 -6 -15 -75 -23 -75
-9 0 5 -13 16 -30 25 -16 8 -30 10 -30 5 0 -6 -10 -9 -22 -7 -25 3 -38 38 -15
38 12 0 27 19 27 36 0 11 -20 2 -32 -15z m93 -111 c10 -6 19 -17 19 -25 0 -23
-57 -19 -69 4 -17 30 11 42 50 21z"/>
<path d="M645 6303 c5 -18 1 -24 -19 -29 -30 -7 -35 -24 -7 -24 14 0 21 -8 24
-27 4 -27 4 -26 6 4 1 22 7 34 21 38 26 8 80 -3 80 -17 0 -5 12 0 27 12 24 19
28 19 33 5 3 -9 10 -17 15 -18 6 -1 10 -9 9 -18 0 -10 5 -15 12 -12 8 3 12 20
11 47 -2 39 -3 41 -30 38 -15 -3 -34 1 -42 8 -13 10 -15 9 -15 -9 0 -27 -25
-38 -47 -20 -9 8 -25 13 -35 11 -11 -2 -26 5 -34 15 -14 17 -15 17 -9 -4z"/>
<path d="M2965 6310 c-3 -5 -2 -10 4 -10 5 0 13 5 16 10 3 6 2 10 -4 10 -5 0
-13 -4 -16 -10z"/>
<path d="M2075 6300 c3 -5 8 -10 11 -10 2 0 4 5 4 10 0 6 -5 10 -11 10 -5 0
-7 -4 -4 -10z"/>
<path d="M2515 6290 c3 -5 8 -10 11 -10 2 0 4 5 4 10 0 6 -5 10 -11 10 -5 0
-7 -4 -4 -10z"/>
<path d="M460 6280 c0 -5 7 -10 16 -10 8 0 12 5 9 10 -3 6 -10 10 -16 10 -5 0
-9 -4 -9 -10z"/>
<path d="M1113 6238 c1 -15 -5 -26 -20 -33 -21 -9 -32 -26 -15 -24 22 4 32 -3
32 -21 0 -11 5 -20 10 -20 6 0 10 14 10 30 0 17 3 30 8 30 4 0 15 7 26 15 17
13 17 15 3 29 -24 25 -57 21 -54 -6z"/>
<path d="M2035 6250 c-3 -5 1 -10 10 -10 9 0 13 5 10 10 -3 6 -8 10 -10 10 -2
0 -7 -4 -10 -10z"/>
<path d="M1190 6236 c0 -9 5 -16 10 -16 6 0 10 4 10 9 0 6 -4 13 -10 16 -5 3
-10 -1 -10 -9z"/>
<path d="M2125 6230 c12 -13 16 -29 13 -51 -5 -30 -4 -31 9 -13 8 10 19 18 24
17 5 -2 9 -1 9 1 0 7 -58 66 -66 66 -4 0 1 -9 11 -20z"/>
<path d="M2410 6241 c0 -6 5 -13 10 -16 6 -3 10 1 10 9 0 9 -4 16 -10 16 -5 0
-10 -4 -10 -9z"/>
<path d="M6867 6231 c-3 -14 2 -20 19 -24 13 -2 24 0 24 4 0 5 -4 9 -10 9 -5
0 -10 7 -10 15 0 22 -17 19 -23 -4z"/>
<path d="M902 6215 c-14 -29 -8 -31 43 -9 21 9 49 14 62 11 13 -2 23 0 23 6 0
6 -20 7 -52 3 -33 -5 -54 -3 -58 4 -4 6 -11 0 -18 -15z"/>
<path d="M2026 6211 c-4 -5 -2 -12 3 -15 5 -4 12 -2 15 3 4 5 2 12 -3 15 -5 4
-12 2 -15 -3z"/>
<path d="M776 6171 c-13 -5 -16 -10 -8 -15 15 -9 63 4 56 15 -6 11 -21 11 -48
0z"/>
<path d="M1050 6153 c0 -13 5 -23 10 -23 13 0 13 11 0 30 -8 12 -10 11 -10 -7z"/>
<path d="M2227 6149 c-10 -6 -27 -9 -38 -6 -24 6 -24 5 5 -47 14 -24 21 -48
16 -52 -5 -5 9 -22 32 -38 37 -27 39 -27 28 -6 -9 16 -9 25 -1 33 6 6 11 21
11 32 0 16 -6 21 -22 21 -31 -1 -38 40 -9 49 23 7 29 25 9 25 -7 0 -21 -5 -31
-11z"/>
<path d="M6795 6112 c-5 -4 -11 -17 -12 -29 -4 -35 24 -28 29 7 5 31 1 35 -17
22z"/>
<path d="M228 6070 c-20 -36 -48 -40 -48 -7 -1 21 -1 21 -21 -5 -11 -16 -29
-28 -40 -28 -10 0 -19 -4 -19 -9 0 -5 -9 -12 -19 -16 -19 -6 -20 -6 -1 -25 10
-10 26 -20 36 -22 24 -4 31 -70 9 -88 -8 -7 -15 -21 -15 -31 0 -11 -6 -19 -12
-19 -16 0 32 -39 48 -40 22 0 36 29 39 84 2 37 -1 55 -9 53 -6 -1 -10 7 -9 18
1 11 -5 24 -13 28 -16 9 -19 33 -4 42 6 4 17 2 24 -4 19 -16 76 38 76 73 0 33
-1 32 -22 -4z"/>
<path d="M6945 6080 c-3 -5 -2 -10 4 -10 5 0 13 5 16 10 3 6 2 10 -4 10 -5 0
-13 -4 -16 -10z"/>
<path d="M378 6013 c15 -25 75 -34 96 -13 8 8 7 13 -4 20 -9 6 -18 3 -25 -7
-11 -15 -14 -15 -36 0 -30 22 -43 22 -31 0z"/>
<path d="M570 6010 c0 -5 5 -10 10 -10 6 0 10 5 10 10 0 6 -4 10 -10 10 -5 0
-10 -4 -10 -10z"/>
<path d="M363 5950 c-18 -8 -33 -20 -33 -26 0 -11 -64 -34 -94 -34 -10 0 -14
-5 -11 -10 4 -6 2 -17 -5 -24 -8 -11 -7 -22 4 -48 l16 -33 -6 43 -6 42 35 0
c19 0 40 -7 48 -16 11 -14 13 -14 21 0 15 27 80 20 101 -10 18 -24 18 -26 1
-38 -17 -13 -16 -14 4 -25 30 -16 32 -14 32 19 0 24 6 33 27 41 15 6 35 8 45
6 11 -3 18 0 18 9 0 22 26 17 43 -8 19 -28 43 -17 61 27 10 24 10 35 -1 55 -9
17 -13 20 -13 8 0 -27 -18 -30 -40 -8 -11 11 -34 23 -51 27 -16 3 -32 10 -35
14 -3 5 -9 9 -14 9 -12 0 1 -43 18 -56 12 -9 12 -13 -3 -28 -14 -13 -20 -14
-32 -5 -7 7 -12 18 -9 26 3 7 1 13 -3 13 -15 0 -22 -32 -10 -47 9 -10 9 -17 1
-25 -15 -15 -45 -1 -38 17 3 8 1 15 -4 15 -6 0 -10 9 -10 20 0 11 5 20 10 20
6 0 10 8 10 19 0 25 -36 30 -77 11z"/>
<path d="M10 5941 c0 -5 9 -7 20 -4 11 3 20 7 20 9 0 2 -9 4 -20 4 -11 0 -20
-4 -20 -9z"/>
<path d="M4010 5938 c0 -5 18 -8 40 -8 22 0 40 2 40 4 0 2 -18 6 -40 8 -22 2
-40 0 -40 -4z"/>
<path d="M2261 5914 c0 -11 3 -14 6 -6 3 7 2 16 -1 19 -3 4 -6 -2 -5 -13z"/>
<path d="M36 5891 c-35 -7 -45 -26 -16 -34 11 -3 20 -1 20 4 0 5 7 9 15 9 8 0
15 7 15 15 0 8 -1 14 -2 14 -2 -1 -16 -4 -32 -8z"/>
<path d="M1491 5866 c-1 -29 2 -37 10 -29 8 8 8 19 1 40 -10 28 -10 28 -11
-11z"/>
<path d="M1713 5883 c9 -2 25 -2 35 0 9 3 1 5 -18 5 -19 0 -27 -2 -17 -5z"/>
<path d="M4410 5830 c0 -5 5 -10 11 -10 5 0 7 5 4 10 -3 6 -8 10 -11 10 -2 0
-4 -4 -4 -10z"/>
<path d="M44 5823 c3 -4 -3 -12 -14 -20 -26 -18 -25 -31 2 -35 17 -2 24 -12
28 -38 4 -19 11 -43 17 -54 10 -17 10 -17 16 3 3 11 1 21 -5 21 -6 0 -8 11 -6
25 3 14 2 25 -2 25 -14 0 -20 31 -10 50 8 14 5 19 -11 23 -12 3 -18 3 -15 0z"/>
<path d="M552 5804 c-7 -8 -8 -14 -3 -14 10 0 25 19 20 25 -2 1 -10 -3 -17
-11z"/>
<path d="M1431 5804 c0 -11 3 -14 6 -6 3 7 2 16 -1 19 -3 4 -6 -2 -5 -13z"/>
<path d="M2080 5806 c0 -8 5 -18 10 -21 6 -3 10 1 10 9 0 8 -4 18 -10 21 -5 3
-10 -1 -10 -9z"/>
<path d="M2800 5809 c13 -6 33 -19 44 -31 19 -20 19 -21 1 -34 -11 -8 -14 -14
-6 -14 9 0 11 -9 6 -30 -4 -19 -3 -30 4 -30 6 0 11 14 11 30 0 18 8 37 20 47
19 17 18 18 -23 45 -23 15 -51 28 -62 27 -17 0 -16 -2 5 -10z"/>
<path d="M296 5769 c-15 -15 -24 -29 -18 -33 5 -3 18 4 28 15 l18 20 18 -23
c17 -22 18 -22 18 -3 0 11 -8 27 -17 35 -16 13 -21 12 -47 -11z"/>
<path d="M1486 5791 c-4 -7 -5 -15 -2 -18 9 -9 19 4 14 18 -4 11 -6 11 -12 0z"/>
<path d="M607 5783 c-12 -11 -8 -41 6 -46 8 -3 14 5 15 24 2 28 -7 37 -21 22z"/>
<path d="M2110 5774 c0 -7 27 -34 34 -34 4 0 1 9 -6 20 -12 19 -28 27 -28 14z"/>
<path d="M6020 5750 c8 -5 22 -10 30 -10 13 0 13 1 0 10 -8 5 -22 10 -30 10
-13 0 -13 -1 0 -10z"/>
<path d="M1440 5724 c0 -19 17 -52 39 -75 15 -16 16 -13 18 38 2 45 0 53 -12
43 -9 -7 -15 -8 -20 0 -9 15 -25 12 -25 -6z"/>
<path d="M2160 5731 c0 -6 4 -13 10 -16 6 -3 7 1 4 9 -7 18 -14 21 -14 7z"/>
<path d="M120 5700 c0 -5 5 -10 11 -10 5 0 7 5 4 10 -3 6 -8 10 -11 10 -2 0
-4 -4 -4 -10z"/>
<path d="M2190 5696 c0 -9 6 -16 14 -16 7 0 19 -7 26 -15 14 -17 40 -20 40 -5
0 6 -5 10 -11 10 -6 0 -24 9 -40 21 -24 17 -29 18 -29 5z"/>
<path d="M290 5655 c15 -19 -5 -63 -35 -77 -30 -14 -32 -24 -5 -33 26 -8 33
-3 65 50 29 50 27 60 -10 67 -19 4 -23 2 -15 -7z"/>
<path d="M977 5659 c7 -7 15 -10 18 -7 3 3 -2 9 -12 12 -14 6 -15 5 -6 -5z"/>
<path d="M590 5630 c0 -5 7 -10 16 -10 8 0 12 5 9 10 -3 6 -10 10 -16 10 -5 0
-9 -4 -9 -10z"/>
<path d="M1467 5596 c-17 -13 -16 -14 3 -19 15 -4 20 0 20 14 0 22 0 22 -23 5z"/>
<path d="M397 5579 c-5 -17 -11 -20 -28 -16 -25 7 -48 -16 -49 -47 0 -15 3
-16 15 -6 17 14 35 5 36 -18 1 -9 4 -3 8 13 7 34 31 36 65 7 14 -13 12 -4 -9
33 -16 28 -29 51 -31 53 -1 1 -4 -7 -7 -19z"/>
<path d="M505 5592 c-14 -9 -18 -62 -5 -62 6 0 10 5 10 10 0 6 8 10 18 10 12
0 14 2 4 8 -7 5 -10 16 -6 25 6 18 -4 22 -21 9z"/>
<path d="M700 5570 c20 -13 33 -13 25 0 -3 6 -14 10 -23 10 -15 0 -15 -2 -2
-10z"/>
<path d="M578 5510 c-15 -26 -15 -30 -2 -30 9 0 23 7 31 16 14 13 14 17 2 29
-12 12 -16 10 -31 -15z"/>
<path d="M643 5509 c-12 -12 -6 -49 8 -49 5 0 5 -7 2 -17 -4 -10 -2 -14 5 -9
11 7 14 86 3 86 -4 0 -12 -5 -18 -11z"/>
<path d="M127 5478 c-3 -12 -1 -30 4 -41 9 -16 13 -17 24 -6 7 8 15 26 19 42
6 24 3 27 -18 27 -16 0 -26 -7 -29 -22z"/>
<path d="M1080 5471 c0 -5 7 -15 17 -22 15 -13 15 -12 4 9 -12 23 -21 28 -21
13z"/>
<path d="M445 5450 c3 -5 10 -10 16 -10 5 0 9 5 9 10 0 6 -7 10 -16 10 -8 0
-12 -4 -9 -10z"/>
<path d="M226 5414 c-18 -17 -20 -30 -7 -38 5 -3 11 1 15 9 7 21 43 19 55 -2
9 -16 10 -16 11 -1 0 20 -26 48 -45 48 -7 0 -21 -7 -29 -16z"/>
<path d="M4238 5408 c7 -7 12 -20 12 -29 0 -22 29 -33 36 -14 9 23 -3 45 -21
39 -8 -3 -15 -1 -15 5 0 6 -5 11 -12 11 -9 0 -9 -3 0 -12z"/>
<path d="M6086 5400 c3 -14 7 -25 8 -26 0 0 13 -8 28 -17 23 -14 26 -15 22 -2
-4 8 -1 22 6 30 18 22 4 31 -15 11 -22 -21 -28 -20 -20 4 4 11 2 20 -4 20 -6
0 -11 -6 -11 -12 0 -9 -4 -8 -11 2 -8 11 -9 9 -3 -10z"/>
<path d="M430 5390 c-8 -5 -11 -12 -7 -16 4 -4 15 0 24 9 18 18 8 23 -17 7z"/>
<path d="M150 5370 c0 -5 5 -10 10 -10 6 0 10 5 10 10 0 6 -4 10 -10 10 -5 0
-10 -4 -10 -10z"/>
<path d="M472 5355 c-9 -19 -8 -23 1 -19 7 2 13 13 14 24 2 26 -1 25 -15 -5z"/>
<path d="M3960 5324 c0 -9 5 -14 12 -12 18 6 21 28 4 28 -9 0 -16 -7 -16 -16z"/>
<path d="M4228 5333 c7 -3 16 -2 19 1 4 3 -2 6 -13 5 -11 0 -14 -3 -6 -6z"/>
<path d="M6085 5319 c9 -31 14 -35 48 -43 29 -7 39 10 12 20 -8 4 -15 12 -15
20 0 8 -4 14 -9 14 -5 0 -17 3 -26 7 -14 5 -16 2 -10 -18z"/>
<path d="M6166 5328 c3 -5 10 -6 15 -3 13 9 11 12 -6 12 -8 0 -12 -4 -9 -9z"/>
<path d="M290 5290 c0 -5 9 -10 21 -10 11 0 17 5 14 10 -3 6 -13 10 -21 10 -8
0 -14 -4 -14 -10z"/>
<path d="M6195 5244 c0 -43 38 -86 57 -65 10 11 10 12 1 7 -8 -5 -13 -1 -13 9
0 10 7 15 18 13 9 -1 28 5 42 15 24 17 24 17 2 17 -12 0 -22 5 -22 10 0 6 -7
10 -16 10 -8 0 -13 3 -11 8 3 4 -9 8 -27 9 -29 1 -31 -1 -31 -33z"/>
<path d="M286 5244 c-11 -7 -16 -17 -13 -21 4 -4 15 1 24 10 22 21 14 30 -11
11z"/>
<path d="M331 5204 c0 -11 3 -14 6 -6 3 7 2 16 -1 19 -3 4 -6 -2 -5 -13z"/>
<path d="M6455 5210 c-3 -5 3 -10 15 -10 12 0 18 5 15 10 -3 6 -10 10 -15 10
-5 0 -12 -4 -15 -10z"/>
<path d="M6305 5130 c4 -6 11 -8 16 -5 14 9 11 15 -7 15 -8 0 -12 -5 -9 -10z"/>
<path d="M943 5055 c33 -46 59 -63 32 -22 -8 13 -13 26 -11 28 3 2 -8 12 -25
21 l-29 17 33 -44z"/>
<path d="M2925 5031 c-3 -5 -1 -12 5 -16 5 -3 10 1 10 9 0 18 -6 21 -15 7z"/>
<path d="M1110 4936 c0 -2 7 -7 16 -10 8 -3 12 -2 9 4 -6 10 -25 14 -25 6z"/>
<path d="M1800 4835 c7 -8 17 -15 22 -15 6 0 5 7 -2 15 -7 8 -17 15 -22 15 -6
0 -5 -7 2 -15z"/>
<path d="M5988 4843 c7 -3 16 -2 19 1 4 3 -2 6 -13 5 -11 0 -14 -3 -6 -6z"/>
<path d="M1845 4820 c-3 -5 1 -10 10 -10 9 0 13 5 10 10 -3 6 -8 10 -10 10 -2
0 -7 -4 -10 -10z"/>
<path d="M6955 4783 c-38 -14 -77 -31 -86 -39 -8 -8 -23 -14 -31 -14 -9 0 -21
-7 -28 -15 -7 -8 -18 -15 -24 -15 -19 0 -102 -83 -121 -120 -10 -19 -21 -37
-24 -40 -4 -3 -18 -20 -31 -39 -20 -29 -24 -47 -24 -110 -1 -42 3 -89 7 -105
7 -24 6 -26 -5 -15 -8 8 -24 31 -37 52 -13 21 -28 36 -33 35 -6 -2 -11 -44
-12 -99 l-1 -96 41 5 c26 3 52 -2 73 -12 35 -19 194 -27 243 -13 17 4 38 23
53 47 29 46 30 50 11 50 -8 0 -17 6 -20 13 -5 10 -7 10 -12 0 -3 -7 -14 -13
-23 -13 -14 0 -17 6 -13 25 5 27 0 30 -28 15 -13 -7 -21 -6 -30 5 -10 12 -9
15 4 15 9 0 16 5 16 10 0 6 7 10 15 10 7 0 18 8 24 18 9 16 10 16 17 -3 4 -11
13 -26 20 -32 16 -16 47 -5 40 13 -6 17 6 18 21 3 9 -9 19 -3 42 22 29 32 31
32 31 10 0 -38 -29 -139 -50 -174 -11 -18 -20 -39 -20 -47 0 -22 58 69 65 102
4 15 11 28 16 28 5 0 9 114 9 275 0 214 -3 275 -12 274 -7 0 -44 -12 -83 -26z
m-154 -366 c-29 -30 -39 -12 -10 19 14 15 25 20 27 14 3 -7 -5 -21 -17 -33z"/>
<path d="M6040 4672 c0 -12 19 -26 26 -19 2 2 -2 10 -11 17 -9 8 -15 8 -15 2z"/>
<path d="M3226 4506 c6 -16 34 -29 43 -20 6 6 -27 34 -41 34 -4 0 -5 -6 -2
-14z"/>
<path d="M2064 4410 c2 -60 9 -92 30 -133 14 -30 26 -58 26 -63 0 -5 11 -25
24 -45 13 -19 26 -46 28 -59 2 -20 -2 -26 -26 -30 l-28 -5 37 -17 37 -16 -3
111 c-2 62 0 120 5 129 6 14 3 17 -19 15 -30 -2 -37 7 -56 73 -13 47 -46 120
-54 120 -3 0 -3 -36 -1 -80z"/>
<path d="M1674 4389 c-8 -14 14 -29 43 -29 12 0 26 -6 30 -12 11 -18 74 -61
80 -55 2 3 -8 14 -23 24 -16 10 -36 25 -45 33 -28 25 -63 50 -70 50 -5 0 -11
-5 -15 -11z"/>
<path d="M3953 4289 c-1 -10 5 -19 13 -19 17 0 18 14 1 28 -10 8 -13 6 -14 -9z"/>
<path d="M4028 4288 c9 -9 15 -9 24 0 9 9 7 12 -12 12 -19 0 -21 -3 -12 -12z"/>
<path d="M1840 4281 c0 -5 5 -13 10 -16 6 -3 10 -2 10 4 0 5 -4 13 -10 16 -5
3 -10 2 -10 -4z"/>
<path d="M4030 4230 c0 -5 5 -10 10 -10 6 0 10 5 10 10 0 6 -4 10 -10 10 -5 0
-10 -4 -10 -10z"/>
<path d="M1929 4181 c36 -45 37 -48 14 -73 -9 -10 -12 -18 -6 -18 6 0 24 -14
42 -30 30 -29 46 -23 16 6 -35 35 -1 62 36 28 10 -9 30 -14 51 -12 l33 3 -27
15 c-91 51 -141 84 -151 101 -6 10 -18 19 -25 19 -9 0 -2 -15 17 -39z"/>
<path d="M7040 4177 c0 -13 -5 -28 -10 -33 -8 -8 -6 -15 5 -24 13 -11 15 -7
15 34 0 25 -2 46 -5 46 -3 0 -5 -10 -5 -23z"/>
<path d="M3982 4162 c-10 -29 -9 -32 9 -32 20 0 23 12 10 44 -7 18 -9 16 -19
-12z"/>
<path d="M5930 4139 c0 -5 5 -7 10 -4 6 3 10 8 10 11 0 2 -4 4 -10 4 -5 0 -10
-5 -10 -11z"/>
<path d="M6300 4143 c-30 -2 -59 -8 -64 -14 -6 -5 -26 -9 -45 -9 -31 0 -80
-18 -58 -21 43 -5 139 0 150 9 7 6 34 13 60 16 25 2 54 9 64 15 19 11 10 12
-107 4z"/>
<path d="M6000 4134 c0 -6 9 -19 20 -29 12 -10 18 -26 15 -35 -3 -9 2 -33 10
-53 15 -35 14 -37 -5 -37 -22 0 -21 -6 12 -79 11 -25 22 -61 25 -80 3 -20 14
-45 23 -56 10 -11 24 -37 31 -57 7 -21 19 -38 26 -38 7 0 13 -5 13 -12 0 -6 8
-4 19 6 19 17 19 18 0 37 -10 10 -19 26 -19 35 0 15 -38 112 -61 156 -5 10 -6
24 -3 33 4 9 0 23 -9 33 -19 23 -39 85 -37 119 4 53 0 63 -20 63 -11 0 -20 -6
-20 -12 0 -9 -4 -8 -10 2 -5 8 -10 10 -10 4z"/>
<path d="M6497 4133 c-2 -4 -5 -30 -6 -57 -1 -27 -6 -57 -12 -67 -12 -24 -12
-59 1 -59 6 0 22 7 36 16 23 15 24 15 18 -1 -5 -13 -2 -16 12 -13 10 2 18 11
18 21 -1 9 2 14 7 11 5 -3 9 0 9 5 0 6 11 11 25 11 18 0 25 -5 25 -20 0 -34
29 -35 63 -2 18 16 48 38 67 47 58 29 104 90 54 71 -9 -4 -14 -9 -10 -13 5 -6
-86 -43 -106 -43 -19 0 -5 17 22 27 40 15 42 48 3 40 -15 -3 -54 -1 -86 5 -32
6 -60 8 -62 6 -3 -2 -7 -21 -9 -41 -3 -21 -10 -45 -15 -55 -13 -23 -19 -5 -23
62 -3 44 -19 70 -31 49z"/>
<path d="M3871 4074 c0 -11 3 -14 6 -6 3 7 2 16 -1 19 -3 4 -6 -2 -5 -13z"/>
<path d="M6995 4080 c-3 -5 -1 -10 5 -10 8 0 9 -10 5 -31 -6 -28 -5 -30 14
-24 24 7 29 -10 6 -19 -19 -7 -20 -56 -1 -56 11 0 13 -14 11 -62 l-4 -63 11
64 c8 48 8 68 -1 82 -7 12 -7 19 -1 19 5 0 10 25 10 55 0 52 -1 55 -24 55 -14
0 -28 -4 -31 -10z"/>
<path d="M6868 4063 c7 -3 16 -2 19 1 4 3 -2 6 -13 5 -11 0 -14 -3 -6 -6z"/>
<path d="M6853 4020 c-13 -5 -23 -12 -23 -15 0 -9 16 -5 36 10 22 16 19 18
-13 5z"/>
<path d="M2014 4004 c3 -9 6 -20 6 -25 0 -6 5 -7 10 -4 16 10 12 45 -6 45 -11
0 -14 -5 -10 -16z"/>
<path d="M3896 3983 c-4 -9 -2 -21 4 -27 12 -12 15 -8 24 22 9 27 -18 32 -28
5z"/>
<path d="M6190 3981 c-45 -11 -17 -81 32 -81 16 0 28 3 28 6 0 16 -24 84 -29
83 -3 -1 -17 -4 -31 -8z"/>
<path d="M6973 3955 c-3 -9 -3 -18 -1 -21 3 -3 8 4 11 16 6 23 -1 27 -10 5z"/>
<path d="M6835 3936 c-27 -22 -28 -25 -13 -40 22 -21 31 -20 23 3 -4 13 0 20
15 24 11 3 20 12 20 21 0 22 -10 20 -45 -8z"/>
<path d="M6631 3926 c-8 -9 -11 -19 -7 -23 9 -9 29 13 24 27 -2 8 -8 7 -17 -4z"/>
<path d="M6445 3900 c-3 -5 -2 -10 4 -10 5 0 13 5 16 10 3 6 2 10 -4 10 -5 0
-13 -4 -16 -10z"/>
<path d="M3950 3881 c0 -11 5 -23 10 -26 6 -3 10 3 10 14 0 11 -4 23 -10 26
-5 3 -10 -3 -10 -14z"/>
<path d="M1070 3872 c0 -4 9 -13 20 -20 22 -13 27 -3 8 16 -14 14 -28 16 -28
4z"/>
<path d="M6222 3813 c4 -66 28 -70 27 -4 -1 37 -6 51 -16 51 -11 0 -13 -12
-11 -47z"/>
<path d="M237 3806 c-3 -8 1 -17 8 -20 20 -7 28 9 11 23 -10 9 -15 8 -19 -3z"/>
<path d="M7016 3783 c-3 -10 -1 -34 3 -53 l9 -35 1 30 c1 17 4 40 7 53 7 26
-12 31 -20 5z"/>
<path d="M1176 3737 c3 -10 9 -15 12 -12 3 3 0 11 -7 18 -10 9 -11 8 -5 -6z"/>
<path d="M6230 3734 c0 -8 5 -12 10 -9 6 3 10 10 10 16 0 5 -4 9 -10 9 -5 0
-10 -7 -10 -16z"/>
<path d="M6770 3720 c0 -8 5 -22 10 -30 9 -13 10 -13 10 0 0 8 -5 22 -10 30
-9 13 -10 13 -10 0z"/>
<path d="M2730 3630 c0 -5 5 -10 10 -10 6 0 10 5 10 10 0 6 -4 10 -10 10 -5 0
-10 -4 -10 -10z"/>
<path d="M2790 3515 c0 -8 4 -15 10 -15 5 0 7 7 4 15 -4 8 -8 15 -10 15 -2 0
-4 -7 -4 -15z"/>
<path d="M2950 3490 c0 -5 -6 -10 -13 -10 -7 0 -28 -13 -47 -29 -31 -27 -33
-29 -12 -28 12 1 22 5 22 9 0 4 5 8 10 8 6 0 10 -9 10 -20 0 -13 5 -18 15 -14
8 4 15 1 15 -5 0 -6 -4 -11 -9 -11 -5 0 -14 -14 -20 -30 -8 -24 -7 -29 2 -23
7 4 26 8 42 9 17 1 24 -1 18 -3 -7 -3 -13 -13 -13 -23 0 -18 2 -18 33 -2 17 9
40 15 49 14 12 -2 16 2 13 10 -4 9 11 20 45 32 27 10 50 21 50 25 -2 23 -42
51 -74 51 -25 0 -36 4 -36 15 0 18 -12 19 -28 3 -9 -9 -12 -7 -12 10 0 24 -15
30 -24 10 -5 -10 -7 -10 -12 0 -7 14 -24 16 -24 2z"/>
<path d="M1852 3420 c0 -14 2 -19 5 -12 2 6 2 18 0 25 -3 6 -5 1 -5 -13z"/>
<path d="M3750 3395 c-8 -9 -8 -15 -2 -15 12 0 26 19 19 26 -2 2 -10 -2 -17
-11z"/>
<path d="M711 3344 c0 -11 3 -14 6 -6 3 7 2 16 -1 19 -3 4 -6 -2 -5 -13z"/>
<path d="M882 3355 c0 -5 6 -26 13 -45 7 -19 14 -28 14 -20 0 8 -6 29 -14 45
-7 17 -13 26 -13 20z"/>
<path d="M3765 3350 c3 -5 8 -10 11 -10 2 0 4 5 4 10 0 6 -5 10 -11 10 -5 0
-7 -4 -4 -10z"/>
<path d="M2933 3323 c-15 -5 -16 -48 -3 -78 7 -16 9 -11 9 21 1 22 6 45 13 52
12 12 3 15 -19 5z"/>
<path d="M1260 3282 c0 -14 6 -22 16 -22 14 0 15 3 3 18 -7 9 -15 19 -16 21
-2 2 -3 -5 -3 -17z"/>
<path d="M147 3228 l6 -67 -34 -4 -34 -4 38 -1 c31 -2 37 -6 38 -24 0 -13 4
-32 9 -43 6 -14 8 -7 7 25 l-2 45 88 5 c94 5 102 2 110 -40 3 -18 5 -15 6 13
l1 37 58 2 c116 4 133 5 139 11 3 4 -59 4 -138 0 -79 -4 -173 -7 -209 -7 l-64
-1 -12 60 -12 60 5 -67z"/>
<path d="M1506 3261 c-55 -4 -81 -10 -84 -20 -3 -8 0 -11 6 -7 15 9 25 -28 17
-63 -4 -19 -1 -32 10 -41 8 -7 15 -24 15 -39 0 -15 9 -34 20 -44 21 -18 17
-47 -6 -47 -8 0 -14 -5 -14 -11 0 -6 19 -9 47 -7 l48 3 -5 85 c-7 136 -6 170
5 170 13 1 23 -58 26 -158 2 -80 8 -100 29 -87 6 4 4 17 -5 35 -22 43 -20 74
5 67 22 -6 27 12 8 31 -7 7 -8 12 -4 12 5 0 1 11 -8 24 -8 13 -17 43 -18 65
-2 23 -5 40 -8 39 -3 -1 -41 -4 -84 -7z m35 -244 c-10 -9 -11 -8 -5 6 3 10 9
15 12 12 3 -3 0 -11 -7 -18z"/>
<path d="M1277 3243 c-4 -3 -35 -6 -69 -6 l-63 1 54 -7 c35 -4 58 -13 68 -26
15 -19 15 -19 10 3 -5 21 -2 23 26 21 18 -1 39 1 47 4 8 3 24 8 35 10 11 3 -7
5 -41 6 -33 0 -64 -2 -67 -6z"/>
<path d="M1003 3226 c-87 -8 -107 -16 -83 -31 6 -3 10 -15 10 -25 0 -10 4 -21
9 -25 6 -3 6 6 1 25 -5 16 -6 31 -2 32 11 2 22 4 80 12 37 6 57 4 67 -4 9 -8
15 -9 15 -2 0 6 8 12 18 14 46 10 -30 13 -115 4z"/>
<path d="M788 3203 c12 -2 32 -2 45 0 12 2 2 4 -23 4 -25 0 -35 -2 -22 -4z"/>
<path d="M608 3193 c6 -2 18 -2 25 0 6 3 1 5 -13 5 -14 0 -19 -2 -12 -5z"/>
<path d="M700 3190 c25 -4 49 -4 53 0 4 4 -16 7 -45 7 l-53 1 45 -8z"/>
<path d="M1382 3180 c7 -10 14 -18 15 -16 6 6 -9 36 -18 36 -5 0 -4 -9 3 -20z"/>
<path d="M2895 3181 c-3 -5 -1 -12 5 -16 5 -3 10 1 10 9 0 18 -6 21 -15 7z"/>
<path d="M20 3150 c-22 -7 -21 -8 12 -9 20 -1 40 4 43 9 7 12 -19 12 -55 0z"/>
<path d="M2935 3150 c3 -5 8 -10 11 -10 2 0 4 5 4 10 0 6 -5 10 -11 10 -5 0
-7 -4 -4 -10z"/>
<path d="M1394 3137 c-2 -7 0 -31 5 -52 l9 -40 1 53 c1 51 -4 65 -15 39z"/>
<path d="M2936 3105 c-2 -7 3 -19 11 -27 14 -11 16 -11 10 4 -3 9 -1 18 6 21
6 2 4 6 -5 10 -9 3 -19 0 -22 -8z"/>
<path d="M1760 3100 c8 -5 20 -10 25 -10 6 0 3 5 -5 10 -8 5 -19 10 -25 10 -5
0 -3 -5 5 -10z"/>
<path d="M1112 3075 c0 -16 2 -22 5 -12 2 9 2 23 0 30 -3 6 -5 -1 -5 -18z"/>
<path d="M1690 3064 c0 -8 5 -12 10 -9 6 4 8 11 5 16 -9 14 -15 11 -15 -7z"/>
<path d="M2910 3070 c0 -5 5 -10 10 -10 6 0 10 5 10 10 0 6 -4 10 -10 10 -5 0
-10 -4 -10 -10z"/>
<path d="M1286 3036 c2 -16 4 -32 4 -37 0 -5 4 -9 9 -9 5 0 7 8 4 19 -3 10 0
22 6 25 6 4 11 12 11 18 0 7 -5 6 -14 -1 -11 -9 -15 -9 -19 1 -2 7 -3 0 -1
-16z"/>
<path d="M1440 3015 c0 -27 3 -45 7 -42 7 8 6 77 -2 85 -3 3 -5 -16 -5 -43z"/>
<path d="M381 3034 c0 -11 3 -14 6 -6 3 7 2 16 -1 19 -3 4 -6 -2 -5 -13z"/>
<path d="M3118 3039 c-3 -8 1 -20 8 -27 15 -14 17 -7 5 22 -6 15 -9 16 -13 5z"/>
<path d="M171 3024 c0 -11 3 -14 6 -6 3 7 2 16 -1 19 -3 4 -6 -2 -5 -13z"/>
<path d="M1122 3010 c0 -19 2 -27 5 -17 2 9 2 25 0 35 -3 9 -5 1 -5 -18z"/>
<path d="M187 2930 c3 -36 7 -67 9 -69 7 -8 2 73 -6 104 -5 19 -6 6 -3 -35z"/>
<path d="M393 2910 l2 -75 -88 -9 c-80 -8 -89 -7 -103 10 -15 18 -15 18 -10 1
4 -14 0 -20 -16 -25 -21 -5 -21 -6 -2 -12 14 -5 21 -20 25 -56 l6 -49 1 52 c2
60 0 59 113 68 l76 7 6 -53 c4 -30 7 -107 7 -171 l0 -117 -32 -6 c-18 -3 -55
-10 -83 -14 -43 -7 -45 -9 -15 -10 19 0 55 4 79 10 24 5 46 8 48 5 3 -2 1 -81
-3 -175 l-7 -170 -26 -4 -26 -4 27 -2 c27 -1 27 -2 31 -83 l3 -83 2 88 c1 62
6 87 15 87 9 0 9 2 -1 9 -11 7 -12 37 -6 157 5 82 8 157 7 166 -2 9 5 19 15
22 16 5 126 20 147 21 6 0 13 -27 16 -60 l6 -60 1 62 2 61 38 10 37 10 -35 1
c-19 0 -66 -6 -105 -14 -105 -22 -122 -21 -122 13 0 15 -1 90 -2 167 l-3 140
26 3 c14 2 26 8 26 14 0 6 -10 8 -24 4 -21 -5 -25 -1 -35 37 -6 23 -13 56 -15
72 -2 17 -3 -4 -3 -45z"/>
<path d="M1291 2958 c-1 -28 -1 -28 -75 -28 -63 0 -75 3 -79 18 -4 13 -5 12
-6 -5 -1 -18 -9 -23 -54 -28 -30 -4 -66 -8 -80 -8 -15 -1 -27 -6 -27 -11 0 -4
-7 -5 -16 -2 -14 6 -15 4 -4 -9 8 -10 16 -12 20 -6 6 12 130 32 143 24 4 -3
14 1 22 7 9 7 41 10 85 8 38 -1 71 0 73 3 1 3 32 9 69 13 82 8 82 8 98 -127
14 -118 25 -135 89 -129 l43 4 -7 97 c-4 53 -9 116 -10 140 l-3 45 -58 -3
c-32 -1 -62 -5 -67 -8 -4 -2 -39 -5 -77 -6 -62 -2 -70 0 -73 18 -3 14 -5 12
-6 -7z m184 -28 c-3 -5 -10 -10 -16 -10 -5 0 -9 5 -9 10 0 6 7 10 16 10 8 0
12 -4 9 -10z"/>
<path d="M1614 2970 c-19 -8 -21 -14 -17 -57 3 -26 9 -61 14 -78 7 -24 7 -22
3 13 -4 32 -2 47 9 55 17 14 31 64 20 70 -5 3 -18 1 -29 -3z"/>
<path d="M1352 2890 c0 -14 2 -19 5 -12 2 6 2 18 0 25 -3 6 -5 1 -5 -13z"/>
<path d="M868 2883 c6 -2 18 -2 25 0 6 3 1 5 -13 5 -14 0 -19 -2 -12 -5z"/>
<path d="M641 2861 c-25 -3 -46 -12 -49 -20 -3 -10 -1 -11 9 -5 8 5 43 14 79
20 68 12 38 15 -39 5z"/>
<path d="M498 2843 c6 -2 18 -2 25 0 6 3 1 5 -13 5 -14 0 -19 -2 -12 -5z"/>
<path d="M1296 2827 c3 -10 9 -15 12 -12 3 3 0 11 -7 18 -10 9 -11 8 -5 -6z"/>
<path d="M1421 2831 c-1 -7 -12 -22 -26 -33 -23 -18 -37 -46 -17 -34 5 3 20
-1 35 -9 26 -13 27 -13 26 13 -1 30 -16 84 -18 63z"/>
<path d="M2318 2823 c6 -2 18 -2 25 0 6 3 1 5 -13 5 -14 0 -19 -2 -12 -5z"/>
<path d="M2255 2810 l-20 -9 20 0 c11 0 27 4 35 9 13 9 13 10 0 9 -8 0 -24 -4
-35 -9z"/>
<path d="M20 2790 c-23 -7 -22 -8 10 -8 19 0 55 3 80 7 l45 8 -55 1 c-30 0
-66 -4 -80 -8z"/>
<path d="M1247 2773 c-6 -32 -3 -38 12 -28 13 8 15 55 2 55 -5 0 -11 -12 -14
-27z"/>
<path d="M1770 2759 c0 -5 5 -7 10 -4 6 3 10 8 10 11 0 2 -4 4 -10 4 -5 0 -10
-5 -10 -11z"/>
<path d="M603 2685 c0 -22 2 -30 4 -17 2 12 2 30 0 40 -3 9 -5 -1 -4 -23z"/>
<path d="M3 2540 c-1 -91 1 -159 4 -152 2 6 15 12 27 12 12 0 26 4 32 9 12 11
126 33 133 25 6 -6 2 -335 -5 -345 -3 -6 -73 -22 -146 -34 -21 -3 -40 -9 -42
-14 -3 -4 36 0 87 10 51 9 94 15 97 12 3 -2 6 -83 8 -178 l3 -173 -23 -5 -23
-4 23 -2 c17 -1 22 -7 23 -28 1 -26 2 -25 10 7 4 19 6 40 4 47 -2 7 -5 88 -6
180 l-1 168 42 7 c60 10 65 22 6 14 l-49 -6 7 172 c5 117 11 175 19 180 9 6 9
8 0 8 -9 0 -13 33 -16 113 l-3 112 -2 -111 -2 -111 -57 -11 c-32 -6 -77 -14
-100 -17 l-42 -7 -4 144 -3 143 -1 -165z"/>
<path d="M1442 2680 c0 -14 2 -19 5 -12 2 6 2 18 0 25 -3 6 -5 1 -5 -13z"/>
<path d="M1337 2682 c-5 -7 -13 -10 -18 -7 -5 4 -10 -10 -10 -29 -1 -20 -2
-40 -3 -46 -1 -5 3 -10 7 -9 12 1 36 -34 31 -43 -10 -16 9 -7 22 10 11 15 14
15 28 2 12 -11 13 -23 7 -45 -6 -24 -13 -30 -34 -28 -20 1 -25 -3 -24 -18 1
-10 5 -19 9 -19 4 0 8 -8 8 -17 0 -14 3 -13 16 5 10 15 22 21 34 17 16 -5 19
2 25 62 3 37 7 76 8 86 1 10 6 17 11 17 5 -1 12 3 15 8 3 6 23 13 44 17 33 7
37 5 37 -14 0 -11 5 -21 10 -21 6 0 10 -12 10 -27 0 -42 17 -14 22 38 l5 45
-31 -3 c-17 -2 -53 -8 -81 -13 -27 -5 -69 -11 -92 -14 -41 -4 -42 -3 -45 28
-2 20 -6 27 -11 18z"/>
<path d="M1191 2654 c0 -11 3 -14 6 -6 3 7 2 16 -1 19 -3 4 -6 -2 -5 -13z"/>
<path d="M1612 2577 c-2 -70 -1 -79 10 -62 7 11 13 43 12 70 -2 69 -3 75 -11
75 -5 0 -9 -37 -11 -83z"/>
<path d="M1270 2640 c0 -5 5 -10 10 -10 6 0 10 5 10 10 0 6 -4 10 -10 10 -5 0
-10 -4 -10 -10z"/>
<path d="M603 2580 c0 -30 2 -43 4 -27 2 15 2 39 0 55 -2 15 -4 2 -4 -28z"/>
<path d="M1235 2613 c-40 -6 -57 -23 -22 -23 15 0 27 -5 27 -12 0 -7 5 -6 13
4 6 8 21 20 32 26 l20 11 -20 -1 c-11 0 -33 -3 -50 -5z"/>
<path d="M1122 2576 c7 -8 15 -12 17 -11 5 6 -10 25 -20 25 -5 0 -4 -6 3 -14z"/>
<path d="M1670 2586 c0 -2 9 -6 20 -9 11 -3 20 -1 20 4 0 5 -9 9 -20 9 -11 0
-20 -2 -20 -4z"/>
<path d="M1013 2573 c9 -2 23 -2 30 0 6 3 -1 5 -18 5 -16 0 -22 -2 -12 -5z"/>
<path d="M953 2562 l-22 -7 24 -12 c15 -6 22 -7 19 -1 -4 6 0 14 7 19 16 10 5
10 -28 1z"/>
<path d="M1470 2570 c-1 -3 -5 -50 -9 -106 l-6 -100 59 8 c71 10 77 14 42 28
-29 11 -63 74 -77 140 -4 19 -8 33 -9 30z"/>
<path d="M776 2523 c12 -13 16 -12 29 1 13 13 12 15 -14 14 -25 -1 -28 -3 -15
-15z"/>
<path d="M703 2523 c9 -2 25 -2 35 0 9 3 1 5 -18 5 -19 0 -27 -2 -17 -5z"/>
<path d="M1300 2371 c0 -12 5 -21 10 -21 6 0 10 6 10 14 0 8 -4 18 -10 21 -5
3 -10 -3 -10 -14z"/>
<path d="M1495 2346 c-28 -6 -50 -17 -49 -24 1 -6 2 -36 3 -64 2 -29 5 -46 8
-38 3 8 9 17 12 20 22 19 91 101 91 110 0 12 0 12 -65 -4z m-13 -58 c-9 -9
-12 -7 -12 12 0 19 3 21 12 12 9 -9 9 -15 0 -24z"/>
<path d="M593 2280 c0 -36 2 -50 4 -32 2 17 2 47 0 65 -2 17 -4 3 -4 -33z"/>
<path d="M1395 2320 c-18 -7 -19 -8 -2 -15 12 -5 17 -18 17 -43 0 -48 6 -38
12 21 6 49 5 51 -27 37z"/>
<path d="M773 2160 c0 -30 2 -43 4 -27 2 15 2 39 0 55 -2 15 -4 2 -4 -28z"/>
<path d="M586 2171 c-4 -7 -5 -15 -2 -18 9 -9 19 4 14 18 -4 11 -6 11 -12 0z"/>
<path d="M630 2170 c-20 -6 -21 -8 -5 -8 11 0 31 4 45 8 20 6 21 8 5 8 -11 0
-31 -4 -45 -8z"/>
<path d="M470 2140 c-20 -6 -21 -8 -5 -8 11 0 34 4 50 8 27 7 27 8 5 8 -14 0
-36 -4 -50 -8z"/>
<path d="M772 1938 c-2 -66 -5 -78 -19 -78 -16 0 -16 -1 0 -12 10 -8 17 -32
20 -63 3 -48 3 -47 5 13 1 42 6 62 15 62 9 0 9 2 0 8 -7 4 -14 38 -16 77 l-3
70 -2 -77z"/>
<path d="M938 1917 c-3 -15 -2 -27 3 -27 13 0 17 14 9 35 -6 17 -7 16 -12 -8z"/>
<path d="M636 1830 c-16 -5 -33 -7 -38 -4 -13 8 -22 -26 -9 -39 8 -8 11 -7 11
6 0 11 11 20 30 24 17 3 33 10 36 14 3 5 4 9 2 8 -2 0 -16 -5 -32 -9z"/>
<path d="M399 1795 c-2 -16 -2 -64 1 -105 l4 -75 6 80 c6 84 -2 161 -11 100z"/>
<path d="M295 1740 c-13 -5 -14 -9 -5 -9 8 0 24 4 35 9 13 5 14 9 5 9 -8 0
-24 -4 -35 -9z"/>
<path d="M593 1690 c0 -36 2 -50 4 -32 2 17 2 47 0 65 -2 17 -4 3 -4 -33z"/>
<path d="M2 1588 l2 -103 3 85 c2 46 8 87 12 90 5 3 3 11 -5 18 -12 11 -14 -3
-12 -90z"/>
<path d="M603 1500 c0 -47 2 -66 4 -42 2 23 2 61 0 85 -2 23 -4 4 -4 -43z"/>
<path d="M213 1505 c0 -27 2 -38 4 -22 2 15 2 37 0 50 -2 12 -4 0 -4 -28z"/>
<path d="M413 1485 c0 -27 2 -38 4 -22 2 15 2 37 0 50 -2 12 -4 0 -4 -28z"/>
<path d="M781 1514 c0 -11 3 -14 6 -6 3 7 2 16 -1 19 -3 4 -6 -2 -5 -13z"/>
<path d="M410 1410 c0 -19 3 -21 12 -12 9 9 9 15 0 24 -9 9 -12 7 -12 -12z"/>
<path d="M8 1323 c-1 -27 0 -64 3 -83 4 -24 7 -8 8 48 1 89 -5 110 -11 35z"/>
<path d="M215 1351 c-3 -5 -1 -12 5 -16 5 -3 10 1 10 9 0 18 -6 21 -15 7z"/>
<path d="M790 1179 c0 -5 5 -7 10 -4 6 3 10 8 10 11 0 2 -4 4 -10 4 -5 0 -10
-5 -10 -11z"/>
<path d="M426 1055 c-3 -8 -1 -15 4 -15 6 0 10 7 10 15 0 8 -2 15 -4 15 -2 0
-6 -7 -10 -15z"/>
<path d="M227 987 c-2 -6 -1 -21 3 -32 6 -17 7 -16 12 8 5 28 -6 47 -15 24z"/>
<path d="M681 933 c-1 -6 -4 -20 -7 -30 -5 -17 -5 -17 6 0 6 10 9 23 6 30 -3
9 -5 9 -5 0z"/>
<path d="M234 830 c0 -58 1 -81 3 -52 2 28 2 76 0 105 -2 28 -3 5 -3 -53z"/>
<path d="M20 904 c0 -8 5 -12 10 -9 6 3 10 10 10 16 0 5 -4 9 -10 9 -5 0 -10
-7 -10 -16z"/>
<path d="M22 810 c0 -14 2 -19 5 -12 2 6 2 18 0 25 -3 6 -5 1 -5 -13z"/>
<path d="M430 688 c0 -19 2 -20 10 -8 13 19 13 30 0 30 -5 0 -10 -10 -10 -22z"/>
<path d="M441 562 c-1 -40 3 -61 9 -57 12 8 43 65 35 66 -3 1 -10 2 -17 3 -7
0 -15 12 -19 26 -5 17 -7 4 -8 -38z"/>
<path d="M90 449 c0 -20 21 -49 36 -49 26 0 14 52 -13 56 -13 2 -23 -1 -23 -7z"/>
</g>
</svg>
